<?xml version="1.0" standalone="no"?>
<!DOCTYPE svg PUBLIC "-//W3C//DTD SVG 1.1//EN" "http://www.w3.org/Graphics/SVG/1.1/DTD/svg11.dtd" >
<svg xmlns="http://www.w3.org/2000/svg" xmlns:xlink="http://www.w3.org/1999/xlink" version="1.1">
<metadata></metadata>
<defs>
<font id="butler_stencilmedium" horiz-adv-x="1040" >
<font-face units-per-em="2048" ascent="1505" descent="-543" />
<missing-glyph horiz-adv-x="526" />
<glyph horiz-adv-x="0" />
<glyph horiz-adv-x="682" />
<glyph unicode=" "  horiz-adv-x="526" />
<glyph unicode="&#x09;" horiz-adv-x="526" />
<glyph unicode="&#xa0;" horiz-adv-x="526" />
<glyph unicode="!" horiz-adv-x="651" d="M184 121q0 -58 40.5 -98.5t97.5 -40.5t97 40.5t40 98.5q0 57 -40 97t-97 40t-97.5 -40t-40.5 -97zM209 1526h231l-59 -1104h-117z" />
<glyph unicode="&#x22;" horiz-adv-x="1062" d="M207 1442h231l-57 -668h-113zM608 1442h236l-62 -668h-110z" />
<glyph unicode="#" horiz-adv-x="1452" d="M90 477v152h289l78 336h-236v149h268l97 414h157l-94 -414h301l97 414h157l-96 -414h248v-149h-281l-78 -336h230v-152h-264l-111 -477h-158l111 477h-303l-111 -477h-158l111 477h-254zM537 629h303l78 336h-304z" />
<glyph unicode="$" horiz-adv-x="1163" d="M94 104v394h17q11 -58 32 -119t54.5 -129.5t86 -127.5t115.5 -93v-31q-94 15 -170 41.5t-105 45.5zM139 1305q4 6 13 16.5t43 37.5t76 47t115.5 37t158.5 17v250h45v-813l223 -147q203 -135 261.5 -294t-40.5 -306q-29 -35 -57.5 -59t-79 -51t-128 -42t-179.5 -16v-250 h-45v874l-178 115q-441 282 -228 584zM319.5 1210.5q-0.5 -59.5 42.5 -125.5t125 -120l58 -39v504q-65 0 -118.5 -30t-80 -80t-27 -109.5zM590 12q81 1 139 28t85.5 69.5t33.5 96t-10.5 108t-53.5 106.5t-90 90l-104 65v-563zM735 1415v31q89 -11 166 -31.5t109 -35.5 l32 -15v-344h-18q-9 38 -22 77.5t-37.5 89t-54.5 91t-76 79t-99 58.5z" />
<glyph unicode="%" horiz-adv-x="2031" d="M289 1016q0 373 280 373q277 0 277 -373q0 -361 -277 -361q-280 0 -280 361zM444 1016q0 -140 13.5 -212.5t38.5 -96t73 -23.5q49 0 73.5 24t37 95.5t12.5 212.5t-13 216t-38.5 102.5t-71.5 27.5q-48 0 -74 -27.5t-38.5 -102t-12.5 -216.5zM500 0l934 1442h120 l-933 -1442h-121zM1204 412q0 60 7.5 110.5t27 100t50 84.5t81 56t115.5 21t114.5 -21t80 -56t49.5 -84.5t26.5 -100t7.5 -110.5q0 -361 -278 -361q-281 0 -281 361zM1360 412q0 -140 13.5 -213t38.5 -97t73 -24q49 0 73.5 24.5t37 96t12.5 213.5q0 141 -13 215.5 t-38.5 101.5t-71.5 27q-48 0 -74 -27t-38.5 -101.5t-12.5 -215.5z" />
<glyph unicode="&#x26;" horiz-adv-x="1658" d="M146 291q-11 81 13.5 144t75 123.5t101 99t106.5 71.5l19 -29q-45 -33 -76.5 -84t-45 -114.5t7.5 -139.5t79 -147q56 -68 147 -91t183.5 17t140.5 142l-463 671q-69 96 -86 194t11.5 173t91.5 128.5t149 68.5q197 33 297 -86l-29 -23q-43 46 -102 63.5t-115 -2.5 q-53 -20 -84 -74.5t-26.5 -130.5t51.5 -145l602 -887q27 -41 69 -64t71 -25l28 -3q141 0 162 97h30q-1 -79 -37 -136.5t-87.5 -85t-112.5 -32.5q-8 -1 -22 -1.5t-53 2.5t-73.5 11.5t-73 31t-61.5 56.5l-114 170q-24 -70 -83.5 -131t-140 -96.5t-166 -44t-171 28.5 t-144.5 118q-58 81 -69 162zM1063 578q76 111 186 137q89 20 140 -23q38 -30 42 -79t-30 -89q-31 -37 -80.5 -40.5t-87.5 28.5q-38 30 -41 78q0 25 -31 19q-39 -9 -80 -56z" />
<glyph unicode="'" horiz-adv-x="528" d="M154 1442h233l-59 -672h-113z" />
<glyph unicode="(" horiz-adv-x="665" d="M162 520q0 98 14 199t49 215t88 216.5t137.5 202t190.5 173.5l27 -25q-61 -71 -109 -157t-77.5 -160t-51 -167.5t-31 -153.5t-14.5 -145t-5.5 -115t-0.5 -89q0 -57 0.5 -89.5t5.5 -115t15 -141.5t31 -146t50 -153.5t76.5 -138.5t106.5 -125l-27 -27q-105 59 -189 147 t-136.5 183.5t-87 205t-48.5 208.5t-14 198z" />
<glyph unicode=")" horiz-adv-x="673" d="M-4 1501l27 25q106 -74 190.5 -173.5t137.5 -202t88 -216.5t49 -215t14 -199q0 -99 -14 -198t-48.5 -208.5t-87 -205t-136.5 -183.5t-189 -147l-27 27q59 53 106.5 125t76.5 138.5t50 153.5t31 146t15 141.5t5.5 115t0.5 89.5q0 59 -0.5 89t-5.5 115t-14.5 145t-31 153.5 t-51 167.5t-77.5 160t-109 157z" />
<glyph unicode="*" horiz-adv-x="1128" d="M131 1063l59 178l336 -172l-59 373h188l-59 -373l336 172l57 -178l-373 -59l269 -265l-154 -112l-170 338l-172 -338l-151 112l268 265z" />
<glyph unicode="+" horiz-adv-x="1464" d="M115 553v164h532v551h166v-551h533v-164h-533v-553h-166v553h-532z" />
<glyph unicode="," horiz-adv-x="520" d="M126 129q-1 59 40 102q43 43 103.5 43t101.5 -43q41 -40 44 -106.5t-18 -126t-55 -111.5q-62 -99 -160 -151l-18 22q58 43 90 100t28.5 88t-16.5 40q-62 7 -98 43q-41 41 -42 100z" />
<glyph unicode="-" horiz-adv-x="909" d="M131 440v164h645v-164h-645z" />
<glyph unicode="." horiz-adv-x="516" d="M113 137q0 62 43 105t104 43q60 0 104 -43.5t44 -104.5t-44 -104t-104 -43q-62 0 -104.5 43t-42.5 104z" />
<glyph unicode="/" horiz-adv-x="860" d="M29 -43l630 1528h166l-630 -1528h-166z" />
<glyph unicode="0" horiz-adv-x="1267" d="M70 709q0 698 489 747v-35q-73 -20 -119.5 -92.5t-72 -225t-25.5 -394.5q0 -180 14 -307.5t42.5 -206.5t67.5 -120t93 -55v-34q-489 46 -489 723zM702 -14v32q56 14 95 54t68 119.5t43 207.5t14 310q0 181 -15 312.5t-44 213.5t-68.5 126t-92.5 60v35q114 -11 201 -58.5 t141.5 -117t88.5 -165t47.5 -193.5t13.5 -213q0 -676 -492 -723z" />
<glyph unicode="1" horiz-adv-x="829" d="M119 1184l356 276h68v-1270q0 -45 11 -77t24.5 -47.5t39 -24t42 -9.5t45.5 -1v-31h-560v31q31 0 51.5 2t47.5 10.5t43 24.5t27.5 47t11.5 75v930q0 47 -16.5 70.5t-39 24t-51 -10.5t-48.5 -24t-34 -25z" />
<glyph unicode="2" horiz-adv-x="997" d="M80 0l149 221h476q56 0 106 29t82 88h31l-93 -338h-751zM84 1073q7 79 32 143.5t59.5 103.5t75 68t79.5 42.5t71.5 21t52.5 8.5h19q151 0 250.5 -100t99.5 -242q0 -96 -59 -200.5t-193 -264.5l-32 25q144 231 87 400q-36 107 -140 154q-103 47 -208 10 q-111 -40 -157 -157l-6 -18z" />
<glyph unicode="3" horiz-adv-x="1052" d="M78 229q15 54 65 81t103 12q54 -17 80.5 -66t11.5 -104q-15 -51 -62 -74q-11 -3 5 -19q34 -32 118 -43v-30q-174 14 -284 106q-26 22 -36.5 60.5t-0.5 76.5zM100 1128q7 68 31 123t54.5 88.5t71 58.5t72.5 36.5t68 18t49.5 7t24.5 0.5q76 0 144.5 -29.5t117.5 -78.5 t73 -116t18.5 -137.5t-53.5 -148t-136 -143.5q143 -56 224.5 -152t86.5 -202q5 -92 -17.5 -168.5t-61.5 -127t-94.5 -88t-112 -56.5t-117.5 -27v34q110 24 155.5 119t32.5 234q-3 34 -13.5 70.5t-39 82.5t-69.5 83t-111 67t-158 39v33q117 28 187.5 93t85.5 138t-7 144 t-78 118q-55 47 -137.5 50.5t-157.5 -41.5t-102 -128z" />
<glyph unicode="4" horiz-adv-x="1101" d="M59 410v30l119 181l29 -17q-13 -24 -15.5 -39t8 -21t20.5 -7.5t32 -1.5h317v673l164 248l86 -14v-907h205v-125h-205v-138q0 -69 9.5 -116.5t22.5 -71.5t38 -36.5t43 -14.5t51 -2v-31h-577v31q32 0 51 2.5t43 15t37 36t22.5 68t9.5 109.5v148h-510z" />
<glyph unicode="5" horiz-adv-x="1095" d="M104 229q15 54 65 82t105 13q54 -15 82 -65t13 -105q-15 -54 -64 -76q-16 -8 1 -26q25 -26 91 -36v-30q-162 18 -254 104q-27 24 -38 63.5t-1 75.5zM106 666l39 208q135 27 251 29.5t199.5 -16t151.5 -52.5t111 -77t73 -93.5t43 -97t15 -92.5q7 -112 -27 -202.5t-98 -149 t-145.5 -93t-177.5 -44.5v30q81 12 142 50t92 91.5t40.5 118t-12.5 130.5q-10 34 -31 68.5t-59 73.5t-91.5 66.5t-128.5 49t-170 21t-217 -18.5zM203 1212l41 230h708l-69 -230h-680z" />
<glyph unicode="6" horiz-adv-x="1153" d="M88 651q0 330 150 553.5t376 251.5v-31q-117 -37 -187 -213.5t-71 -519.5q41 106 133 153.5t201 47.5q84 0 151 -26t110 -68.5t71 -101.5t39.5 -121t11.5 -130q0 -210 -110.5 -326t-300.5 -134v30q82 21 120.5 110.5t38.5 281.5q0 205 -60 305t-153 100 q-88 0 -158.5 -54.5t-93.5 -148.5q3 -272 40 -415t120 -179v-30q-214 26 -321 200t-107 465zM702 1240q-10 55 21 99q32 46 82 52q10 2 -4 12q-14 11 -43 18v31q55 -11 99.5 -36.5t63.5 -46.5t31 -42q16 -28 14 -69t-24 -70q-30 -47 -85.5 -56.5t-100.5 21.5q-44 32 -54 87z " />
<glyph unicode="7" horiz-adv-x="1132" d="M94 1102l43 340h924l-129 -221h-615q-135 0 -192 -119h-31zM385 0q18 578 442 1077h31q-68 -148 -115 -309t-68.5 -306.5t-29.5 -253t-8 -208.5h-252z" />
<glyph unicode="8" horiz-adv-x="1130" d="M74 319q0 125 103 233t229 144q-142 87 -206.5 183t-64.5 208q0 160 96 254.5t250 114.5v-33q-64 -21 -103.5 -79.5t-39.5 -143.5q0 -114 79 -195t251 -149q61 26 100 99t39 178q-3 246 -182 290v33q156 -15 248 -95.5t92 -209.5q0 -98 -72 -192.5t-188 -122.5 q157 -75 256.5 -189.5t99.5 -245.5q0 -197 -110 -299t-298 -118v32q82 20 134 88t51 181q0 58 -24.5 108t-72.5 93t-98.5 75.5t-122.5 69.5q-17 9 -76 43q-21 -11 -42 -26.5t-47 -45t-45.5 -65.5t-32.5 -90.5t-13 -116.5q0 -129 65.5 -212t178.5 -102v-32q-434 23 -434 335z " />
<glyph unicode="9" horiz-adv-x="1136" d="M76 997q0 207 110.5 323t300.5 134v-31q-82 -21 -120.5 -110.5t-38.5 -276.5q0 -205 60 -305t153 -100q86 0 154.5 56t92.5 151q-3 275 -37.5 413t-117.5 172v31q215 -24 320.5 -193.5t105.5 -459.5q0 -365 -128.5 -576.5t-381.5 -238.5v30q59 11 99.5 41.5t68 83 t43 140.5t22 199t6.5 272q-85 -201 -329 -201q-84 0 -151 26t-110 68.5t-71 101t-39.5 120.5t-11.5 130zM170.5 189q2.5 41 24.5 71q31 46 85.5 55.5t100.5 -22.5q44 -31 54 -86t-21 -101q-31 -45 -84 -51q-8 0 6 -11q24 -19 70 -28v-32q-160 24 -222 137q-16 27 -13.5 68z " />
<glyph unicode=":" horiz-adv-x="516" d="M111 180q0 63 43 107.5t106 44.5q60 0 105 -45t45 -107q0 -61 -44.5 -104t-105.5 -43q-63 0 -106 42.5t-43 104.5zM111 772q0 62 43 106t106 44q60 0 105 -44.5t45 -105.5t-45 -105t-105 -44q-63 0 -106 43.5t-43 105.5z" />
<glyph unicode=";" horiz-adv-x="514" d="M111 772q0 62 43 106t104 44q63 0 106.5 -44t43.5 -106q0 -63 -43.5 -107t-106.5 -44q-61 0 -104 44t-43 107zM116 180.5q1 -59.5 42 -100.5q36 -36 98 -43q13 -9 16.5 -40t-28.5 -87.5t-90 -99.5l18 -23q43 23 77 53t49.5 50.5t33.5 48.5q34 52 55 111.5t17.5 126 t-44.5 106.5q-41 43 -101 43t-103 -43q-41 -43 -40 -102.5z" />
<glyph unicode="&#x3c;" horiz-adv-x="1228" d="M94 500v88l1039 532v-168l-785 -407l785 -412v-166z" />
<glyph unicode="=" horiz-adv-x="1255" d="M115 244v145h1046v-145h-1046zM115 705v145h1046v-145h-1046z" />
<glyph unicode="&#x3e;" horiz-adv-x="1228" d="M96 -33v166l785 412l-785 407v168l1039 -532v-88z" />
<glyph unicode="?" horiz-adv-x="1196" d="M168 1272q9 42 49.5 93.5t104.5 82.5l10 -33q-44 -25 -44 -58q1 -21 19 -22q46 -9 76 -49q29 -43 20 -93t-49 -81q-41 -29 -92 -18.5t-82 53.5q-35 50 -12 125zM410 141q0 63 43 107.5t106 44.5q64 0 109 -44.5t45 -107.5t-45 -107t-109 -44q-63 0 -106 44t-43 107z M459 1493q140 30 266.5 -0.5t207.5 -116.5t87 -209q4 -85 -15.5 -158.5t-51 -121.5t-75.5 -86.5t-82.5 -58.5t-78.5 -33q-80 -28 -120.5 -95t-33.5 -159l-47 -6q-6 39 -6.5 70.5t6 77.5t34 91t73.5 84q80 66 116 151t23 236q-13 149 -98 227.5t-197 75.5z" />
<glyph unicode="@" horiz-adv-x="1802" d="M78 371q7 166 66 312t155.5 252t221.5 182t267 111t287 29q107 -4 204.5 -37t179.5 -97.5t139.5 -152.5t83.5 -210t12 -262q-9 -94 -35 -171.5t-61 -130t-80.5 -92.5t-89.5 -62.5t-93.5 -36.5t-86.5 -18.5t-74 -4.5q-67 0 -101 37.5t-26 89.5q-11 -15 -29.5 -32 t-52 -40.5t-83.5 -39t-106 -15.5q-64 0 -111.5 33t-72 86t-33.5 114t-2 123q6 55 23.5 114t53 123.5t83.5 114.5t122 82.5t162 32.5q21 0 40 -2.5t34 -7.5t28 -11t22.5 -12.5t17.5 -13.5t14 -13t9.5 -10.5t5.5 -8.5l2 -3l10 53l172 -2q-105 -538 -121 -612q-4 -22 -5 -45 t14.5 -40.5t47.5 -17.5q28 0 63.5 14t76.5 48.5t76 83.5t60.5 127.5t30.5 173.5q3 55 0 108t-15.5 115t-35 116t-61.5 106.5t-91.5 91.5t-129 66t-170.5 34q-139 10 -261 -26t-212.5 -105t-160 -165t-110 -204.5t-55.5 -224.5q-2 -9 -4 -25t-4 -65.5t1.5 -98t17 -115 t38 -124.5t70.5 -119t108 -106t156 -77.5t209 -41.5q68 -5 136.5 5t117.5 27.5t88.5 36t59.5 31.5l20 14l18 -26q-6 -6 -17.5 -16.5t-54.5 -37t-93.5 -47t-135.5 -37t-180 -16.5q-68 0 -138 10t-149 35.5t-149.5 64.5t-135 102t-110 142.5t-70 192t-18.5 244.5zM757 272 q5 -61 30 -100.5t56 -58t68 -21.5q26 -2 50.5 4.5t41 18t29 23t18.5 20.5l5 8q4 19 34 157t41 195q3 16 5.5 38.5t1 61.5t-9.5 69.5t-31.5 53.5t-59.5 23q-94 0 -168.5 -98.5t-101.5 -243.5q-14 -89 -9 -150z" />
<glyph unicode="A" horiz-adv-x="1429" d="M35 0v31q25 1 37.5 4t38.5 24t51 63t64.5 124.5t88.5 204.5h529l-273 679l117 312h29q168 -401 296 -714.5t172 -426.5l44 -113q10 -24 20.5 -44t18.5 -35t18.5 -26.5t16.5 -19.5t17 -13.5t15.5 -8.5t16 -5t15 -2.5t16.5 -1.5t16 -1v-31h-527v31q38 0 58.5 18.5t24 44 t-2.5 59.5t-14 57t-18 46l-66 164h-508q-9 -26 -16 -48.5t-16 -65.5q-9 -44 -10 -78v-6q0 -32 8 -68q9 -40 31 -66q21 -26 65 -42q39 -15 93 -15h13v-31h-479z" />
<glyph unicode="B" horiz-adv-x="1259" d="M76 0v18q119 0 119 246v916q0 68 -10.5 120.5t-38 88.5t-70.5 36v17h373v-1442h-373zM592 0v31q47 1 80 5.5t71.5 16.5t64 35.5t48 60.5t33 94.5t10.5 133.5q0 86 -19.5 149t-48 97.5t-72 56t-81.5 28t-86 7.5v33q46 5 82.5 22.5t70 54t52 105.5t18.5 166q0 73 -14 129 t-35 88.5t-52 54t-59 30t-63 11.5v33q63 -1 107.5 -3.5t98 -11.5t89.5 -23.5t73 -40t58.5 -61.5t35 -88.5t13.5 -119.5q0 -74 -23 -134.5t-60 -97t-78 -63t-83.5 -38.5t-68.5 -17t-41 -5q35 0 67 -2t79.5 -11t87 -23.5t81 -43t70 -66.5t47 -96t18.5 -130q0 -71 -15.5 -126 t-40.5 -93.5t-67.5 -65.5t-86 -42.5t-107.5 -24.5t-119.5 -12t-134.5 -3z" />
<glyph unicode="C" horiz-adv-x="1394" d="M84 721q0 309 173.5 510.5t465.5 224.5v-31q-60 -9 -107 -33.5t-89 -75.5t-69 -128.5t-43 -195t-16 -271.5t16 -272.5t44 -195.5t70 -128.5t88.5 -75.5t105.5 -33v-30q-291 23 -465 225.5t-174 509.5zM866 16q145 21 250.5 132t132.5 280h31l25 -319q-97 -64 -199 -92 t-240 -33v32zM866 1425v33q144 -3 251.5 -30.5t187.5 -92.5l-25 -319h-31q-57 195 -152.5 294.5t-230.5 114.5z" />
<glyph unicode="D" horiz-adv-x="1505" d="M86 0v31q64 0 104.5 64t40.5 167v918q0 96 -40.5 163.5t-104.5 67.5v31h399v-1442h-399zM629 0v31q51 2 93 8.5t93 25t90.5 48.5t79 82.5t65.5 122t42 171.5t16 228q0 124 -16 226t-42 172t-65 123t-79.5 84t-90.5 50.5t-93 27t-93 9.5v31q782 -20 782 -723 q0 -122 -23.5 -222.5t-63.5 -172.5t-99 -128t-124.5 -91t-146.5 -58t-158.5 -33t-166.5 -12z" />
<glyph unicode="E" horiz-adv-x="1280" d="M61 0v31q61 0 87 59t26 170v932q0 105 -25 162t-88 57v31h367v-1442h-367zM573 0v33q491 27 547 403h31v-436h-578zM573 709v39q245 15 267 206h30v-450h-30q-22 190 -267 205zM573 1409v33h551v-379h-30q-30 324 -521 346z" />
<glyph unicode="F" horiz-adv-x="1173" d="M57 0v31q61 0 87 59t26 170v932q0 105 -25 162t-88 57v31h367v-1178q0 -78 12.5 -127.5t38.5 -71t51 -28t64 -6.5v-31h-533zM569 709v39q259 16 281 204h31v-450h-31q-7 60 -37.5 102.5t-76 63t-84.5 29.5t-83 12zM569 1411v31h568v-379h-31q-47 332 -537 348z" />
<glyph unicode="G" horiz-adv-x="1495" d="M80 721q0 144 42.5 272t121 226.5t197.5 161t264 75.5v-33q-74 -12 -128.5 -53t-95.5 -121t-61.5 -211.5t-20.5 -316.5t21 -317.5t63 -212.5t97 -121t129 -52v-32q-194 16 -338 119t-217.5 262.5t-73.5 353.5zM848 1427v31q293 -6 450 -110l-16 -340h-57 q-28 213 -121.5 309t-255.5 110zM854 14q134 7 181.5 55t47.5 173q0 49 -2 87.5t-4.5 68.5t-9.5 52t-13 38t-18 26t-21.5 16t-28 9t-32.5 3.5t-39 0.5v30h529v-30q-33 0 -51 -3.5t-36 -21t-26 -45.5t-14.5 -84.5t-8 -130t-1.5 -190.5q-199 -76 -453 -84v30z" />
<glyph unicode="H" horiz-adv-x="1298" d="M47 0v31q26 7 42 14.5t27.5 18t17 25t8.5 35t3 47v62.5v46v874q0 54 -0.5 78.5t-3 59.5t-8.5 49.5t-17 32.5t-27.5 25.5t-41.5 12.5v31h395v-31q-37 -12 -45 -54t-8 -171v-33v-442h529v442v25q0 134 -8 177.5t-46 55.5v31h393v-31q-18 -3 -31.5 -8t-24 -15.5t-17 -18.5 t-11.5 -27.5t-7 -32.5t-3.5 -43.5t-1.5 -50v-62.5v-874q0 -133 4 -159q9 -53 53 -75q16 -8 39 -14v-31h-393v31q39 14 46.5 58t7.5 190v393h-529v-393q0 -163 6 -193q8 -39 40 -52q3 -2 7 -3v-31h-395z" />
<glyph unicode="I" horiz-adv-x="743" d="M96 0v31q70 0 115 51.5t45 150.5v1006q0 90 -43.5 131t-116.5 41v31h572v-31q-72 0 -116 -41t-44 -131v-1006q0 -99 45.5 -150.5t114.5 -51.5v-31h-572z" />
<glyph unicode="J" horiz-adv-x="856" d="M2 -311q342 122 342 671v613q0 300 -22.5 369t-137.5 69v31h588v-31q-74 0 -122 -47.5t-48 -140.5v-850q0 -141 -30 -254.5t-82 -192t-128 -134.5t-162 -87.5t-190 -46.5z" />
<glyph unicode="K" horiz-adv-x="1576" d="M78 0v31q137 0 137 202v1006q0 92 -34 132t-103 40v31h559v-31q-38 0 -65 -6t-52 -23t-38 -53t-13 -90v-1006q0 -101 38.5 -151.5t106.5 -50.5v-31h-536zM582 670l270 327q14 16 24 28t32.5 40t37 50.5t35 54.5t29 57.5t16 54.5t0 50.5t-23 39.5t-49.5 28t-83 11v31h621 v-31q-36 0 -61.5 -3t-65 -15.5t-76 -36.5t-90 -67.5t-113 -106t-138 -154.5t-171.5 -211l496 -663q93 -123 278 -123v-31h-270q-42 0 -73.5 2.5t-63 13t-53 19.5t-51.5 35.5t-49.5 46.5t-55 66.5t-61 82t-74.5 105.5q-52 75 -106 149.5t-83 111.5z" />
<glyph unicode="L" horiz-adv-x="1310" d="M76 1411v31h567v-31q-170 0 -170 -182v-1229h-381v31q65 0 97 58t32 165v979q0 178 -145 178zM616 0v33q491 26 537 411h31v-444h-568z" />
<glyph unicode="M" horiz-adv-x="1943" d="M29 0v31q57 0 104 21t77 54t52.5 79.5t34.5 89.5t19 93.5t8.5 82t1.5 63.5h30q0 -32 1 -64.5t8 -83t17.5 -93.5t31.5 -89t49 -78.5t70.5 -53.5t95.5 -21v-31h-600zM96 1411v31h463l528 -1133l-126 -327h-31l-604 1292q-71 121 -197 134q-3 1 -33 3zM1331 0v31 q69 0 108.5 51.5t39.5 161.5v1198h409v-31q-71 0 -114 -43.5t-43 -136.5v-987q0 -108 49.5 -160.5t122.5 -52.5v-31h-572z" />
<glyph unicode="N" horiz-adv-x="1683" d="M20 1411v31h441l885 -1118v-324h-86l-996 1262q-27 34 -51.5 59.5t-45.5 41t-36.5 25.5t-34 14.5t-27.5 6t-26.5 2t-22.5 0.5zM43 0v31q62 0 112 23t81 56t53.5 84t33 91.5t16.5 95t6.5 79t0.5 56.5h31q0 -33 0.5 -56t5.5 -78.5t14.5 -95.5t30 -91.5t48.5 -84.5t73 -56 t102 -23v-31h-608zM1040 1411v31h605v-31q-49 0 -90 -14t-70 -35t-52 -55.5t-37.5 -65t-24.5 -74t-15 -72t-7.5 -70t-2.5 -56.5v-43h-31q0 23 -0.5 37.5t-1.5 49.5t-5 61t-10 64.5t-17 67.5t-25 62.5t-35 57.5t-46.5 44.5t-60 30.5t-74.5 10z" />
<glyph unicode="O" horiz-adv-x="1546" d="M84 711q0 145 40 273.5t116 229.5t193.5 165t264.5 77v-33q-106 -16 -174.5 -86t-107.5 -225t-39 -401q0 -186 21 -316.5t64 -209.5t100 -118.5t136 -50.5v-30q-147 12 -264.5 73t-193.5 158t-116 223t-40 271zM842 -14v30q79 11 135 50t98.5 118t63 209.5t20.5 317.5 q0 247 -38.5 402t-106 224.5t-172.5 85.5v33q147 -13 265 -77t193.5 -165t115.5 -229.5t40 -273.5t-40 -271.5t-115.5 -223.5t-193 -158t-265.5 -72z" />
<glyph unicode="P" horiz-adv-x="1267" d="M57 1411v31h389v-1161q0 -69 13.5 -118t32.5 -74t52 -39t58.5 -16.5t65.5 -2.5v-31h-607v31q136 0 136 248v919q0 213 -140 213zM590 616v31q50 2 87.5 8.5t76 21.5t65 42t48 67.5t32 101.5t10.5 140q0 80 -10.5 141.5t-32.5 102t-48.5 67.5t-65.5 42t-75.5 21.5 t-86.5 8.5v29q113 -3 199.5 -14.5t164 -40t127 -74t78.5 -116.5t29 -167q0 -95 -29 -166t-78.5 -116t-127 -73.5t-163.5 -41t-200 -15.5z" />
<glyph unicode="Q" horiz-adv-x="1538" d="M84 711q0 145 40 273t115.5 229t193.5 165t265 78v-33q-79 -13 -136.5 -55t-100 -124.5t-63.5 -215t-21 -317.5q0 -187 21 -317.5t64 -209.5t99.5 -118t136.5 -50v-32q-148 13 -265.5 74t-193 158.5t-115.5 223.5t-40 271zM190 -268q68 57 142.5 95.5t139 53.5t126.5 20 q29 2 54 2q31 0 58 -3q48 -6 85 -14t57 -16l20 -7l330 -115q43 -14 84 -16q19 -2 35 -2q18 0 31 2q25 3 59.5 18.5t42 20.5t35.5 25q6 3 8 5l21 -22l-187 -158q-59 -48 -121 -65q-36 -11 -78 -11q-32 0 -68 6q-83 13 -169 43t-223 89l-168 69q-54 23 -108 23q-91 0 -181 -66 zM842 -16v32q79 11 135 49.5t98.5 117t63 210t20.5 318.5q0 246 -38.5 401t-106 225t-172.5 86v33q147 -13 265 -77t193.5 -165t115.5 -229.5t40 -273.5q0 -146 -40 -272.5t-115.5 -223.5t-193 -158t-265.5 -73z" />
<glyph unicode="R" horiz-adv-x="1406" d="M49 0v31q68 0 102.5 50t34.5 163v997q0 92 -33.5 131t-103.5 39v31h385v-1211q0 -200 141 -200v-31h-526zM578 655v35q59 2 99.5 9.5t82 29.5t66 60.5t40 104t15.5 157.5q0 93 -16 158.5t-40.5 103.5t-66.5 60t-81.5 29t-98.5 9v29q81 -1 145.5 -6.5t126.5 -17.5t108 -31 t86 -49t64.5 -69.5t38.5 -93.5t14 -122q0 -97 -27.5 -166.5t-81 -112t-121.5 -64.5t-159 -30h10q38 0 72 -6q38 -8 83.5 -35.5t83 -76t75 -135t65.5 -204.5q12 -44 35 -79t48 -54.5t55 -32.5t51.5 -18t40.5 -6v-31h-172q-84 1 -118 1.5t-78.5 12.5t-57 24.5t-36.5 54.5 t-35.5 84t-36.5 129q-24 87 -40 140q-54 183 -239 209z" />
<glyph unicode="S" horiz-adv-x="1200" d="M92 102v394h31q11 -59 28 -113t50.5 -119t77 -113.5t113 -86t153.5 -48.5v-32q-88 4 -167 17.5t-129 30t-87.5 32.5t-53.5 27zM137 1303q3 5 10.5 14t35.5 32.5t62.5 43t95 38.5t130.5 25v-31q-65 -20 -106 -71.5t-48 -115.5q-1 -9 -1 -19q0 -57 36 -121q42 -74 133 -133 l326 -217q203 -132 261 -292q22 -59 22 -117q0 -97 -62 -189q-3 -6 -10 -15.5t-35 -35.5t-63 -47t-98.5 -41.5t-137.5 -26.5v30q74 19 116.5 77.5t45.5 130.5v9q0 67 -38 141q-40 80 -120 138l-327 209q-297 191 -297 390q0 96 69 194zM614 1425v33q78 -4 150.5 -15.5 t120.5 -24.5t84.5 -26t53.5 -22l17 -8v-344h-30q-10 49 -25.5 94.5t-47 100.5t-73 96.5t-106.5 74t-144 41.5z" />
<glyph unicode="T" horiz-adv-x="1384" d="M39 1055v387h1300v-387h-30q-2 71 -26.5 129.5t-58.5 94.5t-80 63t-84.5 39.5t-80.5 20t-59 8.5t-27 1h-80v-1188q0 -97 46 -144.5t116 -47.5v-31h-574v31q70 0 116 47.5t46 144.5v1188h-80q-14 0 -32.5 -1t-60.5 -8.5t-79.5 -20t-82 -39.5t-77 -63t-56 -94t-25.5 -130 h-31z" />
<glyph unicode="U" horiz-adv-x="1507" d="M35 1411v31h579v-31q-37 0 -65.5 -7t-55 -25t-41 -55.5t-14.5 -92.5v-750q0 -183 99.5 -288t259.5 -105q69 0 132 26t113 74.5t79.5 126t29.5 172.5h31q0 -116 -32 -207t-82 -145.5t-118 -90t-134 -49t-136 -13.5q-103 0 -192 34t-156 98t-105.5 163t-38.5 221v733 q0 180 -153 180zM891 1411v31h573v-31q-46 0 -84 -8.5t-65.5 -21.5t-49 -35t-35.5 -41.5t-23.5 -48.5t-14 -48.5t-7 -49.5t-3 -44t-0.5 -38v-7h-31q0 23 -0.5 37.5t-2.5 44t-6.5 50t-13.5 50t-21.5 50t-32.5 43t-45 36t-60.5 22.5t-77.5 9z" />
<glyph unicode="V" horiz-adv-x="1558" d="M35 1411v31h600v-31q-39 0 -65 -13.5t-36.5 -38t-15.5 -45.5t-1 -51.5t5.5 -38.5t5.5 -23v-1l355 -915l-113 -285h-33q-167 401 -294.5 714.5t-171.5 425.5l-44 113q-18 44 -38.5 75t-37.5 47t-40 24.5t-38 10t-38 1.5zM971 1411v31h542v-31q-44 0 -66 -4t-60.5 -27.5 t-71 -74t-80 -145t-105.5 -238.5l-28 8q47 136 58 206q5 39 5 72q0 200 -194 203z" />
<glyph unicode="W" horiz-adv-x="2226" d="M27 1411v31h602v-31q-37 0 -62.5 -11.5t-38 -28t-18 -40.5t-5.5 -43t4.5 -41t6.5 -29.5t4 -13.5l342 -897l-112 -307h-33l-500 1247q-22 56 -46 91.5t-50.5 50t-45.5 18.5t-48 4zM748 1411v31h602v-31q-37 0 -63 -11t-38 -29t-18 -39.5t-4.5 -44t4.5 -40t7 -30.5l3 -13 l330 -899l-117 -305h-33l-481 1247q-21 56 -45 91.5t-51.5 50t-47 18.5t-48.5 4zM1634 1411v31h561v-31q-41 0 -71.5 -8.5t-69 -37t-75 -81t-83 -143t-98.5 -219.5l-29 8q2 8 11.5 37t16 51t15.5 58.5t13.5 65.5t5.5 65t-4 63t-18.5 55t-35.5 46t-57.5 29t-81.5 11z" />
<glyph unicode="X" horiz-adv-x="1609" d="M47 1411v31h643v-31q-46 -1 -70 -25q-18 -18 -18 -54q0 -12 2 -25q8 -55 60 -131l661 -973q41 -57 75.5 -93t65.5 -52t52.5 -21t52.5 -6v-31h-602v31q68 13 68 72q0 56 -61 152q-2 4 -3 5l-672 975q-43 60 -80.5 98t-70 53.5t-53.5 20t-50 4.5zM104 0v31h6q33 0 54 3 t68 25t95 65t124 130.5t165 212.5l25 -29q-7 -14 -24.5 -44.5t-31 -54.5t-30.5 -58t-25.5 -61t-14.5 -57.5t1.5 -52.5t24 -40.5t51 -28.5t84.5 -10v-31h-572zM922 1411v31h620v-31q-27 0 -42 -1t-49.5 -9t-62.5 -22.5t-72.5 -45.5t-88.5 -74.5t-102 -112.5t-121 -157l-25 29 q5 9 20 35t25.5 44.5t25.5 49t23 53.5t15 52t5.5 50t-11 42.5t-29 35.5t-52.5 22.5t-79 8.5z" />
<glyph unicode="Y" horiz-adv-x="1499" d="M20 1413v29h588v-29q-17 0 -26 -0.5t-28.5 -4.5t-29 -12t-18.5 -25.5t-6 -41t17.5 -62t43.5 -87.5l311 -516v-424q0 -108 47 -158.5t119 -50.5v-31h-573v31q71 0 117.5 50.5t46.5 158.5v338q-134 236 -232 404.5t-129 218.5l-32 50q-32 56 -62 91t-60 49t-47.5 17.5 t-46.5 4.5zM901 1411v31h572v-31q-22 0 -36 -1t-45 -9.5t-56 -24t-64 -48.5t-75.5 -79.5t-83 -119.5t-93.5 -166l-21 26q8 16 15.5 34t19 48.5t19.5 59.5t13 63q6 32 6 60v5q-1 30 -10.5 58.5t-28 48.5t-52.5 32.5t-80 12.5z" />
<glyph unicode="Z" horiz-adv-x="1189" d="M51 0l811 1442h275l-760 -1442h-326zM100 1028l37 414h608l-20 -31q-231 0 -385 -100t-203 -283h-37zM498 0l16 31q95 1 180 29.5t147.5 73.5t112.5 104.5t80 119.5t45 119h35l-49 -477h-567z" />
<glyph unicode="[" horiz-adv-x="657" d="M231 -299v1804h396v-30q-43 0 -66.5 -1.5t-56.5 -10.5t-50.5 -27t-30.5 -52t-13 -84v-1413q0 -43 13.5 -73.5t31.5 -46t50.5 -24t57 -10t64.5 -1.5v-31h-396z" />
<glyph unicode="\" horiz-adv-x="866" d="M29 1503h164l636 -1542h-163z" />
<glyph unicode="]" horiz-adv-x="655" d="M23 -268q40 0 64.5 1.5t57 10t50.5 24t31.5 46t13.5 73.5v1413q0 50 -13 84t-30.5 52t-50.5 27t-56.5 10.5t-66.5 1.5v30h395v-1804h-395v31z" />
<glyph unicode="^" horiz-adv-x="1165" d="M182 770l371 672h47l373 -672h-76l-322 371l-315 -371h-78z" />
<glyph unicode="_" horiz-adv-x="1146" d="M0 -150h1147v-108h-1147v108z" />
<glyph unicode="`" horiz-adv-x="690" d="M8 1415l197 60l354 -334h-59z" />
<glyph unicode="a" d="M84 190q0 38 7 69.5t22.5 56.5t36.5 45.5t52.5 38t66.5 31.5t83 28.5t97 27.5t113 29l48 12v123q0 145 -64 219q-46 53 -110 53q-25 0 -53 -8l-12 27q34 12 70.5 18t56.5 6l20 -1q72 0 126.5 -20t90 -54.5t57 -87t30.5 -112.5t9 -136v-328q0 -5 0.5 -14.5t5.5 -32.5 t14 -41t28.5 -32.5t46.5 -14.5q5 0 13.5 1t24.5 12t21 30l31 -12q-13 -53 -72.5 -97t-142.5 -44h-11t-26.5 3.5t-38 9.5t-40.5 19.5t-37.5 32t-26.5 49t-11 68.5v332q-305 -71 -305 -258q0 -12 3 -27.5t12.5 -37.5t24.5 -40t43.5 -30.5t64.5 -12.5q45 0 77 19q12 -24 23 -35 q-103 -92 -236 -92q-9 0 -25 1t-56 12t-71 30.5t-56 62.5t-25 102zM164 774q14 23 21.5 35t35 39.5t64.5 50.5l14 -29q-35 -28 -27 -42q1 -2 4 -3q46 -7 68 -41q20 -28 20 -59q0 -9 -2 -19q-8 -42 -43 -69q-27 -19 -59 -19q-9 0 -19 2q-43 8 -69 42q-20 31 -20 63 q0 24 12 49z" />
<glyph unicode="b" horiz-adv-x="1171" d="M29 1423v31l319 66v-725q44 82 134.5 126t176.5 44q189 0 310 -139t121 -363q0 -221 -122.5 -343.5t-322.5 -135.5v32q193 37 193 424q0 237 -66.5 342t-200.5 105q-105 0 -164 -72.5t-59 -189.5v-285q0 -148 56.5 -228.5t146.5 -95.5v-32q-155 12 -246 100 q-57 -53 -125 -78q-47 -16 -47 4v1290q0 53 -21 79t-83 44z" />
<glyph unicode="c" horiz-adv-x="1005" d="M92 473q0 88 31.5 171t89 151t148 113t200.5 53v-33q-32 -8 -62 -23t-64 -48t-59.5 -77.5t-42 -116t-16.5 -159.5q0 -89 23.5 -159.5t64 -114t89 -68.5t104.5 -33q21 -3 42 -3q70 0 142 33q94 43 127 103l25 -14q-10 -42 -37 -85t-72.5 -85.5t-119.5 -69t-164 -26.5 q-122 0 -225.5 66t-163.5 179t-60 246zM655 930v31q153 -13 226 -105q21 -22 27 -55q2 -12 3 -23q0 -21 -8 -41q-19 -43 -63 -63q-23 -10 -45 -11q-21 0 -41 9q-45 17 -65 61q-10 23 -10 45q0 21 9 41q18 46 62 62q11 3 -8 18q-31 23 -87 31z" />
<glyph unicode="d" horiz-adv-x="1159" d="M70 485q0 222 122 343.5t324 134.5v-35q-194 -37 -194 -418q0 -243 62.5 -353t193.5 -110q102 0 166.5 68t64.5 176v323q0 140 -56.5 219t-142.5 95v33q117 -12 199 -66v410q0 54 -20.5 76.5t-83.5 41.5v31l321 66v-1342q0 -74 20 -97t84 -26v-30l-264 -41 q-25 -4 -39.5 5t-16.5 20l-1 11v119q-44 -78 -132.5 -117.5t-174.5 -39.5q-191 0 -311.5 138t-120.5 365z" />
<glyph unicode="e" d="M76 467q0 204 113 339.5t296 154.5v-31q-77 -28 -129.5 -144.5t-52.5 -263.5h440q0 166 -46 273t-117 135v31q376 -25 376 -469h-653q9 -171 82 -261t193 -110q23 -4 47 -4q68 1 139 31q96 40 129 112l29 -14q-9 -33 -27 -67t-52 -70t-77.5 -63.5t-107.5 -45.5t-138 -18 q-127 0 -230 68t-158.5 178.5t-55.5 238.5z" />
<glyph unicode="f" horiz-adv-x="645" d="M25 946h133q0 209 34 333.5t98 178.5t171 64v-31q-86 -73 -86 -545h223l-4 -31h-219v-712q0 -86 19 -123t73 -49v-31h-389v31q23 5 38 15.5t23.5 22.5t12.5 35.5t5 42.5t1 56v712h-131zM522 1316q-7 19 -7 38q0 23 11 47q18 43 62 53q16 2 6 15q-10 15 -39 22v31 q56 -8 101 -35.5t59 -52.5q18 -25 21 -60q1 -7 1 -15q0 -26 -10 -50q-19 -41 -63 -58q-20 -8 -40 -8q-22 0 -44 10q-42 21 -58 63z" />
<glyph unicode="g" horiz-adv-x="1142" d="M27 -291q8 59 39 109t79 90l21 -21q-12 -17 -18.5 -36t-7.5 -36t2 -35t8 -33.5t12 -30t14 -25t13 -19t9 -12.5l3 -4q76 -89 218 -117q47 -9 93 -9q95 0 188 38l15 -27q-133 -64 -274 -79q-43 -5 -83 -5q-91 0 -164 24q-107 35 -145 111q-24 46 -24 92q0 13 2 25zM113 125 q0 7 0.5 19.5t10 47t27 64t56.5 62.5t94 51q-76 34 -120 107t-44 157q0 121 91.5 208t248.5 99v-31q-63 -13 -97 -76t-34 -200q0 -244 131 -277v-32q-81 6 -143 30q-24 -7 -49 -30.5t-37.5 -53t-10.5 -58t36.5 -48t99.5 -19.5h266q59 0 95.5 -2t95.5 -17.5t91.5 -44.5 t53.5 -87q14 -39 14 -87q0 -26 -4 -54q0 -6 -2 -16.5t-13 -42.5t-28.5 -63t-55 -71.5t-87.5 -73.5l-17 31q30 25 50.5 53.5t29 51.5t12.5 43t4 31l-1 11q-1 4 -2.5 11.5t-12.5 26t-28 32.5t-52 25.5t-80 11.5h-276q-41 0 -77 3.5t-81.5 16.5t-77.5 34.5t-54.5 62t-22.5 94.5 zM573 324v32q134 33 134 277q0 241 -134 274v35q150 -12 244 -92q37 56 90 84.5t99 34.5q11 2 21 2q49 0 83 -39q25 -29 25 -67v-9q-3 -43 -37 -72q-28 -25 -66 -25q-5 0 -10 1q-44 3 -72 37q-22 28 -22 56q0 8 2 17q1 12 -24 6q-39 -9 -66 -47q75 -78 75 -196 q0 -120 -92.5 -208t-249.5 -101z" />
<glyph unicode="h" horiz-adv-x="1071" d="M33 1415v31l319 74v-1299q0 -92 16 -133.5t68 -54.5v-33h-383v33q23 7 38.5 19t24 26.5t13 39t5.5 45.5t1 58v1077q0 54 -20 77t-82 40zM403 825q51 60 128.5 100t148.5 40q132 0 201 -74t69 -250v-420q0 -92 16.5 -134.5t67.5 -55.5v-31h-381v31q28 8 45.5 23.5t25 42.5 t9.5 52.5t2 71.5v412q0 203 -192 203q-59 0 -117 -48z" />
<glyph unicode="i" horiz-adv-x="538" d="M57 864v31l320 70v-746q0 -92 16 -133t68 -55v-31h-381v31q23 7 38.5 19.5t24 26.5t13 38.5t5.5 45.5t1 58v512q0 53 -21 80t-84 53zM127 1253q0 51 35 87t86 36t88 -36t37 -87t-37 -85.5t-88 -34.5t-86 34.5t-35 85.5z" />
<glyph unicode="j" horiz-adv-x="534" d="M16 -436q34 10 61 47t41.5 91.5t24.5 107t13.5 112t4.5 85.5t1 48v668q0 55 -20.5 85.5t-82.5 55.5v31l318 70v-863q0 -140 -27 -244t-78.5 -168t-112.5 -100t-143 -57v31zM129 1253q0 52 35.5 87.5t85.5 35.5q52 0 88.5 -35.5t36.5 -87.5q0 -51 -37 -85.5t-88 -34.5 q-50 0 -85.5 34.5t-35.5 85.5z" />
<glyph unicode="k" horiz-adv-x="1097" d="M20 1423v31l320 66v-1301q0 -92 16 -133.5t68 -54.5v-31h-383v31q23 7 38.5 19t24 26.5t13 39t5.5 45.5t1 58v1079q0 55 -20.5 81.5t-82.5 43.5zM389 426l193 205q8 8 21 22t45.5 52t49 71t24.5 67q8 33 -20 53q-27 19 -86 19h-6v31h480v-31q-28 -1 -52 -5t-76 -24.5 t-105.5 -56.5t-132.5 -108.5t-165 -171.5q101 -142 183.5 -248.5t114.5 -142.5l32 -35q65 -86 182 -92v-31h-235q-37 0 -61.5 2.5t-50.5 15.5t-42.5 25t-45 46t-49 62.5t-63.5 90.5z" />
<glyph unicode="l" horiz-adv-x="503" d="M47 1423v31l320 66v-1301q0 -92 16 -133.5t68 -54.5v-31h-383v31q23 7 38.5 19t24 26.5t13 39t5.5 45.5t1 58v1079q0 55 -20.5 81.5t-82.5 43.5z" />
<glyph unicode="m" horiz-adv-x="1593" d="M20 864v31l320 70v-748q0 -91 16.5 -131.5t67.5 -54.5v-31h-383v31q23 7 38.5 19t24 26t13 38t5.5 45t1 58v506q0 56 -21 85.5t-82 55.5zM393 827q49 61 113.5 99.5t132.5 38.5q63 0 110 -17t75.5 -46t46 -72t24 -89t6.5 -104v-418q0 -91 16.5 -133t67.5 -55v-31h-383v31 q23 7 38.5 19t24 26.5t13 39t5.5 45.5t1 58v420q0 201 -166 201q-52 0 -102 -43zM948 825q47 61 114 100.5t138 39.5q130 0 196 -71.5t66 -248.5v-426q0 -92 16 -133.5t68 -54.5v-31h-383v31q23 7 38.5 19t24 26.5t13 39t5.5 45.5t1 58v420q0 99 -42.5 150t-125.5 51 q-52 0 -102 -43q-1 1 -13.5 14t-13.5 14z" />
<glyph unicode="n" horiz-adv-x="1062" d="M20 864v29l320 72v-748q0 -91 16.5 -132t67.5 -54v-31h-383v31q23 7 38.5 19t24 26t13 38t5.5 45t1 58v516q0 54 -20 79.5t-83 51.5zM410 842q53 55 122 89t134 34q64 0 111.5 -15.5t84.5 -51t55.5 -99t18.5 -154.5v-426q0 -93 16 -135t68 -55v-29h-383v29 q28 8 45.5 23.5t25 42.5t9.5 52.5t2 71.5v420q0 91 -50.5 146t-138.5 55q-45 0 -96 -35z" />
<glyph unicode="o" horiz-adv-x="1122" d="M84 473q0 200 114 336.5t318 151.5v-31q-94 -15 -135 -115.5t-41 -341.5q0 -165 19.5 -262.5t56.5 -142t100 -54.5v-30q-204 15 -318 152t-114 337zM610 14q63 10 100 54.5t56.5 142t19.5 262.5q0 241 -41 341.5t-135 115.5v31q205 -15 319.5 -151.5t114.5 -336.5 t-114.5 -337t-319.5 -152v30z" />
<glyph unicode="p" horiz-adv-x="1185" d="M35 864v29l317 72v-164q44 80 133 122t174 42q192 0 313.5 -138t121.5 -362q0 -222 -123.5 -346t-325.5 -137v34q195 38 195 424q0 240 -66 347.5t-199 107.5q-96 0 -155 -64t-68 -165v-381q10 -120 64.5 -187t134.5 -82v-32q-121 12 -199 67v-387q0 -90 16 -126.5 t68 -49.5v-31h-381v31q54 16 68 52t14 124v1088q0 51 -19.5 72t-82.5 40z" />
<glyph unicode="q" horiz-adv-x="1169" d="M102 489q0 217 117 337.5t313 136.5v-33q-63 -10 -105 -53.5t-66.5 -134.5t-24.5 -230q0 -245 63 -362t193 -117q99 0 156.5 65t60.5 172v353q-3 137 -52.5 212.5t-127.5 94.5v33q133 -6 229 -76q55 50 122 66q46 12 46 -9v-1280q0 -90 15.5 -126.5t68.5 -49.5v-31h-383 v31q54 16 68 52t14 124v430q-52 -55 -128 -83.5t-146 -28.5q-191 0 -312 140t-121 367z" />
<glyph unicode="r" horiz-adv-x="813" d="M29 864v31l321 70v-746q0 -92 16 -133t68 -55v-31h-385v31q23 7 38.5 19.5t24 26.5t13 38.5t5.5 45.5t1 58v512q0 54 -20 81.5t-82 51.5zM406 817q37 46 78 77t66 42t58 20q14 5 33 5q17 0 39 -4q44 -8 70 -33q38 -38 38 -93.5t-38 -93.5t-93 -39h-3q-53 0 -93 37 q-35 38 -35 83v7q2 8 -9 10h-6q-30 0 -75 -34l-12 -10z" />
<glyph unicode="s" horiz-adv-x="890" d="M94 640q-13 37 -13 73q0 70 48 141q2 4 7.5 10t25 23t43.5 30.5t65.5 26.5t89.5 17v-33q-45 -11 -70 -43q-25 -31 -25 -70q-1 -41 31 -88q30 -46 89 -82l207 -129q137 -86 177 -204q14 -42 14 -81q0 -75 -48 -145q-3 -3 -8 -9t-24.5 -22t-43.5 -28.5t-64.5 -25.5 t-86.5 -17v34q64 16 84 70q8 22 9 45q0 34 -18 73q-30 64 -98 109l-206 125q-147 93 -185 200zM96 68v268h31q10 -41 18.5 -70t31 -76.5t51 -79.5t77 -59.5t109.5 -34.5v-32q-60 3 -115 12.5t-90.5 21.5t-62 23.5t-38.5 18.5zM455 930v33q89 -4 160.5 -19.5t98.5 -29.5 l27 -13v-239h-28q-6 31 -16 59.5t-30 65t-46.5 64t-69.5 50t-96 29.5z" />
<glyph unicode="t" horiz-adv-x="686" d="M35 946h108v283l217 35v-318h244l-8 -31h-236v-614q0 -102 38.5 -149.5t115.5 -47.5q41 0 75.5 24.5t47.5 55.5l27 -16q-28 -74 -104.5 -130t-168.5 -56q-61 0 -104.5 14.5t-77 49t-50 96.5t-16.5 153v620h-102z" />
<glyph unicode="u" horiz-adv-x="1112" d="M33 897v31l329 37v-666q0 -190 191 -190q74 0 117 36l22 -34q-52 -57 -126.5 -93t-143.5 -36q-63 0 -109.5 14t-85.5 47.5t-59.5 96t-20.5 153.5v450v9v33t-1 26.5t-2 22.5t-4 17t-7 14t-10.5 9.5t-14.5 8.5t-19.5 5.5t-24.5 5t-31 3.5zM651 897v31l316 37v-785 q0 -71 18.5 -91t85.5 -28v-30l-268 -47q-24 -4 -37.5 4.5t-15.5 19.5l-2 10v723v17q0 84 -10 104q-14 26 -70 33q-8 1 -17 2z" />
<glyph unicode="v" horiz-adv-x="1060" d="M2 915v31h453v-31q-35 0 -53 -15t-19 -36.5t2.5 -43.5t10.5 -37l7 -15l250 -535l-98 -251h-29l-385 829q-14 30 -31 50.5t-28.5 30.5t-30.5 15.5t-25 6t-24 1.5zM662 915v31h397v-31q-25 0 -39.5 -2t-43 -17.5t-51.5 -45t-56.5 -89t-67.5 -145.5l-31 17l10.5 31.5 t11 45.5t7 55t-4 54.5t-19.5 48.5t-43 33.5t-70 13.5z" />
<glyph unicode="w" horiz-adv-x="1609" d="M39 915v31h438v-31q-33 0 -51 -13t-20 -31.5t1 -37.5t9 -32l6 -13l246 -548l-95 -258h-28l-375 837q-16 32 -34 53t-38 29t-30.5 10.5t-28.5 3.5zM588 915v31h440v-31q-37 0 -56.5 -13.5t-21 -32t2 -37.5t9.5 -32l7 -14l245 -546l-98 -258h-26l-373 837q-13 26 -28 45 t-26.5 28t-27.5 14.5t-24 6.5t-23 2zM1206 915v31h383v-31q-18 0 -31.5 -2.5t-40.5 -17.5t-50 -43t-54 -85t-59 -136l-27 24q5 15 8.5 31t7.5 42.5t3.5 50.5t-8 49.5t-22.5 44t-43 30.5t-67 12z" />
<glyph unicode="x" horiz-adv-x="1083" d="M18 915v31h453v-31q-21 0 -35 -7t-21.5 -21.5t1.5 -42t35 -64.5l434 -655q66 -94 184 -94v-31h-457v31q29 0 39 14.5t4.5 35.5t-15.5 42.5t-20 36.5l-10 14l-440 655q-14 17 -27 30t-22.5 22t-21.5 15t-17.5 9.5t-17.5 5.5l-15 2.5t-16 1t-15 0.5zM31 0v31q15 0 22.5 0.5 t28.5 4.5t38 12t45 25.5t55 42t62.5 64.5t73.5 90l25 -24q-9 -14 -16.5 -27t-18 -36t-14.5 -41.5t-1 -40t17 -36t44.5 -24.5t76.5 -10v-31h-438zM586 915v31h450v-31q-1 0 -15.5 -0.5t-20.5 -1t-23.5 -3t-29 -7t-32 -13.5t-37.5 -20.5t-41.5 -30t-47 -41t-50.5 -54 t-57 -68.5l-18 24q9 14 14.5 24t16.5 34.5t15 42.5t2.5 40.5t-13.5 37.5t-40.5 25.5t-72.5 10.5z" />
<glyph unicode="y" horiz-adv-x="1097" d="M20 918v28h453v-28q-33 0 -51.5 -14t-20.5 -34.5t1 -41t8 -34.5l6 -14l254 -542l-97 -256h-30l-387 843q-37 87 -136 93zM142 -404q18 -49 65 -71q25 -11 54 -11q9 0 19 1q41 5 66 26q90 75 139 209l-30 2q-24 -68 -59 -83q-20 -9 -25 9q-14 56 -62 76q-25 12 -51 12 q-22 0 -44 -9q-49 -19 -71 -66q-10 -24 -10 -49q0 -23 9 -46zM668 918v28h399v-28q-28 0 -49.5 -7.5t-55.5 -36t-74.5 -99t-84.5 -181.5l-23 22q10 27 18 56.5t12 76.5v25q0 32 -6 58q-9 35 -43 61q-33 25 -89 25h-4z" />
<glyph unicode="z" horiz-adv-x="917" d="M61 0l547 946h232l-518 -946h-261zM106 676l11 270h397l-18 -33q-158 -12 -244 -70t-113 -167h-33zM416 0l18 35q83 10 147 37.5t102 67.5t59.5 81.5t31.5 89.5h33l-19 -311h-372z" />
<glyph unicode="{" horiz-adv-x="673" d="M100 559v27q6 2 22.5 6.5t24 6.5t22 9t21.5 14t19 20t18 29.5t14 41t11.5 54t6.5 69.5t3 88v239q0 86 22.5 149.5t64.5 102t92.5 60t115.5 30.5v-28q-45 -16 -72 -47.5t-43 -97t-16 -169.5v-295q0 -81 -21.5 -140.5t-58 -92t-79 -47.5t-91.5 -15q250 0 250 -272v-295 q0 -152 32 -221t99 -92v-29q-65 9 -115.5 30.5t-92.5 60t-64.5 102t-22.5 149.5v240q0 81 -9 138t-20 87t-34 49.5t-37 24t-44 10.5q-12 3 -18 4z" />
<glyph unicode="|" horiz-adv-x="438" d="M150 -336v1841h137v-1841h-137z" />
<glyph unicode="}" horiz-adv-x="669" d="M109 -307q67 23 99 92t32 221v295q0 272 249 272q-49 0 -91.5 15t-79 47.5t-57.5 92t-21 140.5v295q0 104 -16 169.5t-43 97t-72 47.5v28q65 -9 115 -30.5t92 -60t64.5 -102t22.5 -149.5v-239q0 -48 3 -88t6.5 -69.5t11.5 -54t14 -41t18 -29.5t19 -20t21.5 -14t22 -9 t24 -6.5t22.5 -6.5v-27q-6 -1 -18 -4q-29 -6 -43.5 -11t-37.5 -23.5t-34 -49t-20 -87.5t-9 -138v-240q0 -86 -22.5 -149.5t-64.5 -102t-92 -60t-115 -30.5v29z" />
<glyph unicode="~" horiz-adv-x="1206" d="M125 422q28 68 64 118.5t72.5 76.5t74 42t69.5 18t57 0.5t40 -5.5l14 -4l240 -88q28 -11 70.5 -12t89 7.5t87.5 34.5t60 66l24 -10q-28 -68 -64.5 -118.5t-72 -77t-72.5 -42.5t-68 -18t-55.5 -1t-38.5 5l-14 4l-239 88q-28 10 -71 11.5t-90 -6t-89 -33t-61 -66.5z" />
<glyph horiz-adv-x="0" />
<glyph unicode="&#xa1;" horiz-adv-x="618" d="M176 1030q0 56 40 95.5t97 39.5t96.5 -39.5t39.5 -95.5q0 -58 -39.5 -97.5t-96.5 -39.5t-97 39.5t-40 97.5zM197 -358l57 1087h115l55 -1087h-227z" />
<glyph unicode="&#xa2;" horiz-adv-x="1073" d="M154 473q0 70 19.5 138.5t59.5 130t96 109.5t134 78.5t168 35.5v249h37v-1089q90 -7 180.5 36t122.5 101l24 -14q-10 -39 -33 -78.5t-61 -80t-99 -70t-134 -37.5v-224h-37v224q-111 1 -202.5 40t-151 106.5t-91.5 156t-32 188.5zM379 504q0 -163 70.5 -253t181.5 -118 v799q-31 -6 -62 -20.5t-66.5 -47t-62 -77.5t-44 -118.5t-17.5 -164.5zM739 924v34q133 -20 203 -102q20 -23 26.5 -55t-5.5 -64q-18 -43 -62 -63t-88 -2q-44 17 -63 60.5t0 86.5q14 44 59 62q12 3 -7 18q-23 17 -63 25z" />
<glyph unicode="&#xa3;" horiz-adv-x="1349" d="M68 172.5q0 23.5 6.5 50.5t22 52.5t38.5 48t59.5 37.5t80.5 20.5t105.5 -3t131.5 -32.5q78 -29 92 -39q5 107 -96 258q-84 130 -111 176h-194v31h180q-94 211 -82 363t95 242.5t196 124t221 7.5l-4 -28q-86 13 -153 -6t-107.5 -74t-48 -139t33 -211t128.5 -279h366v-31 h-348l59 -84q42 -67 56 -140.5t3 -138t-42 -124.5q15 -10 57.5 -27t77.5 -29l35 -12q104 -35 195 -6.5t102 96.5l32 -6q1 -63 -20 -114.5t-50 -81.5t-61.5 -50.5t-54.5 -28t-31 -7.5q-77 -18 -165 18t-216 117q-66 -81 -155 -111t-211 -30v30q99 0 173 42t116 116 q-111 71 -195 109q-99 40 -164.5 21t-96.5 -66.5t-18 -94.5l-32 -8q-6 18 -6 41.5zM799 1278.5q1 54.5 41 91.5q32 35 90 31q23 0 2 21q-13 13 -33 24l12 24q109 -58 146 -155q11 -30 1.5 -68.5t-36.5 -64.5q-38 -38 -93 -37t-93 39q-38 40 -37 94.5z" />
<glyph unicode="&#xa4;" horiz-adv-x="1204" d="M37 252l168 168q-94 131 -94 287q0 159 94 286l-168 168l102 103l166 -168q126 94 289 94q164 0 287 -94l168 168l102 -103l-170 -168q94 -123 94 -286q0 -161 -94 -287l170 -168l-102 -102l-168 167q-127 -94 -287 -94q-158 0 -289 94l-166 -167zM260 707 q0 -141 98 -236q98 -98 236 -98t233 98q99 99 99 236q0 135 -97 235q-98 98 -235 98q-138 0 -236 -98q-98 -95 -98 -235z" />
<glyph unicode="&#xa5;" horiz-adv-x="1353" d="M-49 1413v29h588v-29q-17 0 -26 -0.5t-28.5 -4.5t-29 -12t-18.5 -25.5t-6 -41t17.5 -62t43.5 -87.5l313 -518h344v-33h-344v-144h344v-32h-344v-215q0 -107 46.5 -157t117.5 -50v-31h-574v31q71 0 117.5 50t46.5 157v215h-387v32h387v93l-31 51h-356v33h340 q-117 206 -203.5 353t-114.5 191l-28 45q-26 46 -52 77.5t-45 47.5t-43.5 24.5t-37.5 10t-37 2.5zM831 1411v31h572v-31q-22 0 -36 -1t-44.5 -10t-56 -24.5t-64 -49t-75.5 -80t-83.5 -119.5t-93.5 -166l-18 30q10 21 20.5 46t24.5 68t21 82t4 81t-19 72.5t-54.5 50.5 t-97.5 20z" />
<glyph unicode="&#xa6;" horiz-adv-x="434" d="M145 381h144v-772h-144v772zM145 737v768h144v-768h-144z" />
<glyph unicode="&#xa7;" horiz-adv-x="1116" d="M115.5 526q10.5 73 71.5 153t171 152q-159 144 -139 345q9 81 40.5 140t79 90.5t95.5 47t103 19.5v-31q-72 -18 -117.5 -67.5t-52.5 -121.5q-9 -79 28 -144.5t140 -135.5l256 -166q73 -48 126 -109t78.5 -134t16 -147.5t-68.5 -154.5t-167 -149q159 -146 137 -338 q-7 -66 -31 -118t-56 -83.5t-74.5 -53t-82.5 -30.5t-85 -12v30q66 17 108 67t49 122q10 83 -21.5 144.5t-131.5 131.5l-258 170q-72 49 -123.5 108t-76.5 130.5t-14.5 144.5zM228.5 -347q-1.5 34 15.5 64q23 42 69 55t90 -10q42 -25 54.5 -71.5t-11.5 -87.5q-23 -39 -75 -49 q-13 -2 13 -14q23 -11 56 -19v-33q-69 12 -120.5 43.5t-71.5 62.5q-18 25 -19.5 59zM229.5 572.5q6.5 -37.5 24 -66.5t50 -61t61 -53.5t67.5 -47.5t96 -62t101 -63t49 -31q34 -20 72 -53q54 38 89 76t47.5 72.5t14.5 65.5t-14 62t-33.5 55.5t-49.5 52t-56.5 45.5t-59.5 42 q-37 25 -97 63.5t-102 66t-49 32.5q-36 22 -53 39q-63 -42 -100.5 -84t-50.5 -77.5t-6.5 -73zM664.5 1260q-13.5 47 9.5 88q23 39 59 47q13 2 -3 14q-16 14 -50 23v30q68 -11 120 -42.5t72 -63.5q16 -28 18.5 -60t-11.5 -63q-25 -42 -71 -54.5t-89 11.5q-41 23 -54.5 70z " />
<glyph unicode="&#xa8;" horiz-adv-x="538" d="M-16 1321q0 44 32 76.5t76 32.5t75.5 -32.5t31.5 -76.5t-31.5 -75.5t-75.5 -31.5t-76 31.5t-32 75.5zM340 1321q0 44 31.5 76.5t74.5 32.5q46 0 78.5 -32.5t32.5 -76.5t-32.5 -75.5t-78.5 -31.5q-43 0 -74.5 31.5t-31.5 75.5z" />
<glyph unicode="&#xa9;" horiz-adv-x="1654" d="M61 754q0 208 102 383.5t278 278t384 102.5q155 0 296 -60.5t243 -163t162.5 -244t60.5 -296.5t-60.5 -296t-162.5 -243t-243 -162.5t-296 -60.5q-156 0 -297.5 60.5t-244 162.5t-162.5 243t-60 296zM193 754q0 -127 50 -244.5t135 -202.5t202 -135.5t245 -50.5 q169 0 314 85.5t230 231.5t85 316q0 171 -85 317.5t-230 232t-314 85.5q-171 0 -316.5 -85.5t-230.5 -232t-85 -317.5zM424 735q0 185 109 300.5t292 115.5q98 0 165 -15t118 -55l-10 -176h-29q-28 217 -244 217q-34 0 -62.5 -8t-59.5 -33t-52 -66t-35 -112.5t-14 -167.5 q0 -389 223 -389q216 0 244 219h29l10 -176q-63 -42 -125.5 -57t-157.5 -15q-182 0 -291.5 116.5t-109.5 301.5z" />
<glyph unicode="&#xaa;" horiz-adv-x="614" d="M43 1036q0 76 61 113q43 25 186 61h1l1 1h1h1h1l1 1h1h1h1l1 1h1h1h1l1 1h1h1h1l1 1h1h1h1l1 1h1h1l1 1h2v61q0 82 -40 115t-101 6q-33 -13 -35 -28q-1 -3 2 -3q24 0 37 -20q12 -19 7.5 -40.5t-21.5 -35.5q-18 -12 -40.5 -9t-35.5 21q-9 12 -9.5 28.5t5.5 28.5 q19 48 80 80q22 11 48 16.5t41 4.5h15q91 0 127.5 -55t36.5 -158v-172q0 -3 0.5 -8t3 -17.5t7 -22t14.5 -17.5t24 -7q2 0 6 0.5t10.5 7t8.5 17.5l22 -9q-5 -29 -33.5 -51t-76.5 -22q-4 0 -10 0.5t-22.5 5t-29.5 12t-25 24t-14 38.5q-11 -33 -54 -56.5t-99 -23.5 q-5 0 -13.5 0.5t-29.5 6.5t-37 16t-29.5 32t-13.5 53zM158 1061q0 -12 4.5 -26.5t24 -31t51.5 -16.5q56 0 79 57v142q-84 -20 -121.5 -50t-37.5 -75z" />
<glyph unicode="&#xab;" horiz-adv-x="1249" d="M178 545l473 489v-67l-278 -422l278 -412v-65zM596 545l473 489v-67l-276 -422l276 -412v-65z" />
<glyph unicode="&#xac;" horiz-adv-x="1327" d="M84 662v145h1147v-643h-148v498h-999z" />
<glyph unicode="&#xad;" horiz-adv-x="909" d="M131 440v164h645v-164h-645z" />
<glyph unicode="&#xae;" horiz-adv-x="1660" d="M61 756q0 155 60.5 296.5t163 244t244 163t296.5 60.5t296 -60.5t243 -163t162.5 -244t60.5 -296.5t-60.5 -296t-162.5 -243t-243 -162.5t-296 -60.5t-296.5 60.5t-244 162.5t-163 243t-60.5 296zM195 756q0 -170 84.5 -315t229.5 -229.5t316 -84.5q170 0 315 84.5 t229.5 229.5t84.5 315q0 171 -84.5 317t-229.5 231t-315 85q-171 0 -316 -85t-229.5 -231t-84.5 -317zM510 373v28q38 0 57 27t19 90v526q0 50 -17.5 65t-58.5 15v29h244q73 0 123 -4t98 -16.5t75.5 -35.5t44.5 -61.5t17 -93.5q0 -101 -54.5 -147t-156.5 -56q30 2 56 -6.5 t55 -33.5t54.5 -78t45.5 -132q21 -88 125 -88v-28h-94q-95 1 -119 12q-31 13 -49 66q-2 6 -47 163q-9 32 -28.5 55.5t-41 33.5t-41 15.5t-32.5 5.5l-13 1h-53v-215q0 -109 76 -109v-28h-285zM719 754h35q29 0 43 0.5t38 2.5t36.5 7t29.5 13.5t25.5 22.5t18 33.5t13 46.5 t3.5 62q0 30 -4 55t-8.5 43t-16.5 32t-19.5 22.5t-26.5 14.5t-27.5 9t-33.5 4.5t-34 1.5h-37h-35v-370z" />
<glyph unicode="&#xaf;" horiz-adv-x="737" d="M-33 1210v123h805v-123h-805z" />
<glyph unicode="&#xb0;" horiz-adv-x="780" d="M117 1243q0 110 78.5 188t187.5 78t187.5 -78t78.5 -188q0 -109 -78.5 -186.5t-187.5 -77.5t-187.5 77.5t-78.5 186.5zM190 1243q0 -80 56.5 -136t138.5 -56q78 0 134 56.5t56 135.5q0 78 -56 134.5t-134 56.5q-81 0 -138 -56.5t-57 -134.5z" />
<glyph unicode="&#xb1;" horiz-adv-x="1245" d="M84 0v145h1063v-145h-1063zM84 618v146h457v332h145v-332h461v-146h-461v-331h-145v331h-457z" />
<glyph unicode="&#xb2;" horiz-adv-x="544" d="M61 1268q4 50 24.5 86t46.5 52.5t51.5 25.5t42.5 10h18q70 0 116 -45t46 -109q0 -44 -24 -90t-81 -123q-21 -27 -54.5 -76t-56.5 -85l-24 -35h170q57 0 86 51h27l-41 -154h-345l211 311q77 122 33 203q-29 52 -90 59q-65 6 -105 -44q-14 -18 -22 -43z" />
<glyph unicode="&#xb3;" horiz-adv-x="555" d="M74 881q8 25 30.5 37.5t47.5 5.5q25 -8 37.5 -31t3.5 -47q-7 -27 -31 -35q-7 -2 7 -8q26 -12 83 -12q62 0 95 46.5t24 112.5q-3 20 -11 39.5t-26 43t-53.5 40t-85.5 21.5v30q70 16 102.5 58.5t25 86.5t-43.5 72q-39 34 -94.5 19.5t-73.5 -72.5l-31 2q4 43 23.5 74 t41.5 45.5t49.5 22.5t38.5 9t19 1q42 0 79 -18.5t58 -50.5t26.5 -69.5t-16 -81t-69.5 -79.5q66 -19 102.5 -64.5t38.5 -95.5q2 -47 -12 -86t-38 -63t-54.5 -40.5t-59.5 -23t-55 -6.5q-100 0 -160 53q-28 25 -18 64z" />
<glyph unicode="&#xb4;" horiz-adv-x="737" d="M178 1143l354 334l197 -60l-491 -274h-60z" />
<glyph unicode="&#xb5;" horiz-adv-x="1103" d="M23 897v29l329 39v-672q1 -94 51 -140.5t140 -46.5q70 0 119 41l20 -30q-50 -74 -144.5 -107t-185.5 -12v-332q0 -75 20 -99t85 -30v-31l-267 -47q-24 -4 -37.5 4.5t-14.5 19.5l-1 11v1249v9v33t-1 26.5t-2 22.5t-4 17t-7 14t-10.5 9.5t-14.5 8.5t-19.5 5.5t-24.5 5 t-31 3.5zM641 897v29l315 39v-785q0 -71 19 -91t86 -28v-30l-268 -47q-15 -2 -26 0.5t-16.5 8t-9 11t-3.5 10.5l-1 4v723q0 94 -6 113q-10 29 -53 38q-14 3 -37 5z" />
<glyph unicode="&#xb6;" horiz-adv-x="1316" d="M76 1024q0 98 30 173t78.5 120t117.5 74t137.5 39.5t148.5 11.5h2h131v-1985h-387v31q34 0 64.5 5t66.5 22t62 44t43.5 76t17.5 113v866q-90 0 -161 9.5t-139 37t-113 72t-72 118.5t-27 173zM856 -543v1985h299v-31q-75 0 -121.5 -77.5t-46.5 -188.5v-1378 q0 -123 41 -201t113 -78v-31h-285z" />
<glyph unicode="&#xb7;" horiz-adv-x="532" d="M160 612q0 44 32 76.5t78 32.5q44 0 76.5 -32.5t32.5 -76.5t-32.5 -76t-76.5 -32q-46 0 -78 32t-32 76z" />
<glyph unicode="&#xb8;" horiz-adv-x="557" d="M115 -371q7 23 27.5 34t43.5 5q23 -8 34 -27t5 -42q-2 -17 -18 -25q-3 -3 1 -7t20.5 -8t43.5 -3q51 0 81.5 31t29.5 83q0 16 -6 35.5t-20 43t-37.5 40t-59 25t-84.5 -1.5l17 49q107 33 173 10t95 -70.5t22 -103.5q-6 -50 -29.5 -86t-57 -53t-64.5 -24.5t-60 -6.5 q-88 0 -141 45q-23 23 -16 57z" />
<glyph unicode="&#xb9;" horiz-adv-x="452" d="M80 1317l172 125h33v-559q0 -26 6.5 -42.5t19 -23.5t24 -9.5t27.5 -2.5v-27h-270v27q39 0 63.5 15.5t24.5 62.5v389q0 24 -10 34t-24.5 6.5t-26 -9.5t-19.5 -13z" />
<glyph unicode="&#xba;" horiz-adv-x="669" d="M68 1100q0 348 264 348q262 0 262 -348q0 -336 -262 -336q-264 0 -264 336zM195 1100q0 -96 10 -159.5t30.5 -94.5t42.5 -42t54 -11t54.5 11t42 42t29 94t9.5 160q0 127 -19.5 200.5t-47 96t-68.5 22.5q-32 0 -55 -12.5t-42.5 -46t-29.5 -98.5t-10 -162z" />
<glyph unicode="&#xbb;" horiz-adv-x="1247" d="M172 68v65l277 412l-277 422v67l473 -489zM590 68v65l278 412l-278 422v67l473 -489z" />
<glyph unicode="&#xbc;" horiz-adv-x="1314" d="M29 74l1138 1376h119l-1141 -1376h-116zM160 1384l180 144h35v-649q0 -29 6.5 -47t21 -25t24.5 -8.5t28 -1.5v-29h-281v29q20 0 33 2t27.5 9.5t22 25t7.5 45.5v464q0 26 -10 36t-26 5.5t-28 -11.5t-22 -15zM662 215v16l348 521l49 -7v-466h106v-64h-106v-61q0 -44 6 -71 t20 -38t25 -13.5t33 -2.5v-29h-299v29q20 0 32 3t25.5 13.5t20 36.5t6.5 68v65h-266zM748.5 301q-3.5 -11 1.5 -15.5t10.5 -5.5t17.5 -1h150v292l-164 -241q-12 -18 -15.5 -29z" />
<glyph unicode="&#xbd;" horiz-adv-x="1325" d="M29 74l1138 1376h119l-1141 -1376h-116zM160 1384l180 144h35v-649q0 -29 6.5 -47t21 -25t24.5 -8.5t28 -1.5v-29h-281v29q20 0 33 2t27.5 9.5t22 25t7.5 45.5v464q0 26 -10 36t-26 5.5t-28 -11.5t-22 -15zM803 0l237 356q86 137 40 227q-29 59 -96 69q-70 10 -117 -40 q-22 -24 -33 -59l-29 8q3 42 16 75.5t31 54t39.5 35.5t42 21.5t37 10.5t27.5 4h10q80 0 131 -52t51 -126q0 -50 -28 -102t-95 -140l-154 -225h197q29 0 58.5 15t45.5 44h29l-49 -176h-391z" />
<glyph unicode="&#xbe;" horiz-adv-x="1316" d="M29 74l1138 1376h119l-1141 -1376h-116zM98 891q7 29 33 43.5t53 5.5q29 -8 44 -34t5 -54q-9 -26 -26 -35q-8 -2 4 -10q25 -16 90 -16q77 0 109 50.5t22 131.5q-3 24 -11.5 47t-28.5 51t-61 47.5t-98 24.5v26q79 19 116 67.5t29.5 98t-46.5 80.5q-30 23 -69 23.5 t-73.5 -23.5t-48.5 -67l-30 10q3 35 15 63t27.5 45t36.5 30t37.5 19t35 9t25 3.5t11.5 0.5q60 0 108 -33.5t68 -82t-0.5 -110t-87.5 -110.5q73 -19 116 -72t46 -110q2 -56 -14.5 -100.5t-43 -71.5t-61 -44.5t-66.5 -24.5t-63 -7q-112 0 -182 59q-13 12 -19.5 32.5t-1.5 37.5 zM662 215v16l348 521l49 -7v-466h106v-64h-106v-61q0 -44 6 -71t20 -38t25 -13.5t33 -2.5v-29h-299v29q20 0 32 3t25.5 13.5t20 36.5t6.5 68v65h-266zM748.5 301q-3.5 -11 1.5 -15.5t10.5 -5.5t17.5 -1h150v292l-164 -241q-12 -18 -15.5 -29z" />
<glyph unicode="&#xbf;" horiz-adv-x="1220" d="M207 -201q-4 85 15.5 157.5t51 120.5t75.5 86.5t82.5 59t78.5 33.5q81 26 122.5 92.5t33.5 159.5l47 8q6 -38 6.5 -70.5t-7 -78.5t-35 -91t-73.5 -83q-53 -45 -83.5 -88.5t-47.5 -119t-8 -178.5q13 -152 99.5 -230t201.5 -73l8 -30q-106 -27 -206.5 -12.5t-179 55 t-128 115t-53.5 167.5zM514 819q0 63 45.5 107.5t108.5 44.5t106 -44.5t43 -107.5t-43 -107t-106 -44t-108.5 44t-45.5 107zM825 -227q9 51 49 80t91 18.5t82 -53.5q35 -49 12 -125q-9 -41 -48 -91t-100 -81l-12 33q23 13 32.5 31t6 31t-15.5 15q-47 6 -78 50q-28 41 -19 92 z" />
<glyph unicode="&#xc0;" horiz-adv-x="1429" d="M35 0v31q25 1 37.5 4t38.5 24t51 63t64.5 124.5t88.5 204.5h529l-273 679l117 312h29q168 -401 296 -714.5t172 -426.5l44 -113q10 -24 20.5 -44t18.5 -35t18.5 -26.5t16.5 -19.5t17 -13.5t15.5 -8.5t16 -5t15 -2.5t16.5 -1.5t16 -1v-31h-527v31q38 0 58.5 18.5t24 44 t-2.5 59.5t-14 57t-18 46l-66 164h-508q-9 -26 -16 -48.5t-16 -65.5t-10 -77.5t8 -74.5t31 -66t65.5 -42.5t105.5 -14.5v-31h-479zM428 1780l197 59l354 -334h-59z" />
<glyph unicode="&#xc1;" horiz-adv-x="1429" d="M35 0v31q25 1 37.5 4t38.5 24t51 63t64.5 124.5t88.5 204.5h529l-273 679l117 312h29q168 -401 296 -714.5t172 -426.5l44 -113q10 -24 20.5 -44t18.5 -35t18.5 -26.5t16.5 -19.5t17 -13.5t15.5 -8.5t16 -5t15 -2.5t16.5 -1.5t16 -1v-31h-527v31q38 0 58.5 18.5t24 44 t-2.5 59.5t-14 57t-18 46l-66 164h-508q-9 -26 -16 -48.5t-16 -65.5t-10 -77.5t8 -74.5t31 -66t65.5 -42.5t105.5 -14.5v-31h-479zM448 1505l354 334l197 -60l-491 -274h-60z" />
<glyph unicode="&#xc2;" horiz-adv-x="1429" d="M35 0v31q25 1 37.5 4t38.5 24t51 63t64.5 124.5t88.5 204.5h529l-273 679l117 312h29q168 -401 296 -714.5t172 -426.5l44 -113q10 -24 20.5 -44t18.5 -35t18.5 -26.5t16.5 -19.5t17 -13.5t15.5 -8.5t16 -5t15 -2.5t16.5 -1.5t16 -1v-31h-527v31q38 0 58.5 18.5t24 44 t-2.5 59.5t-14 57t-18 46l-66 164h-508q-9 -26 -16 -48.5t-16 -65.5t-10 -77.5t8 -74.5t31 -66t65.5 -42.5t105.5 -14.5v-31h-479zM399 1505l306 383l305 -383h-64l-241 183l-244 -183h-62z" />
<glyph unicode="&#xc3;" horiz-adv-x="1429" d="M35 0v31q25 1 37.5 4t38.5 24t51 63t64.5 124.5t88.5 204.5h529l-273 679l117 312h29q168 -401 296 -714.5t172 -426.5l44 -113q10 -24 20.5 -44t18.5 -35t18.5 -26.5t16.5 -19.5t17 -13.5t15.5 -8.5t16 -5t15 -2.5t16.5 -1.5t16 -1v-31h-527v31q38 0 58.5 18.5t24 44 t-2.5 59.5t-14 57t-18 46l-66 164h-508q-9 -26 -16 -48.5t-16 -65.5t-10 -77.5t8 -74.5t31 -66t65.5 -42.5t105.5 -14.5v-31h-479zM225 1556q28 68 64 118.5t71.5 77t72.5 42.5t68 18t56 1t39 -5l14 -4l240 -88q27 -11 70.5 -11.5t89.5 9t87.5 36.5t59.5 67l25 -15 q-28 -68 -64 -118.5t-71.5 -77t-72.5 -43t-68 -18.5t-56 -1.5t-39 4.5l-14 4l-240 90q-28 9 -70 10.5t-88.5 -6.5t-88 -33.5t-60.5 -66.5z" />
<glyph unicode="&#xc4;" horiz-adv-x="1429" d="M35 0v31q25 1 37.5 4t38.5 24t51 63t64.5 124.5t88.5 204.5h529l-273 679l117 312h29q168 -401 296 -714.5t172 -426.5l44 -113q10 -24 20.5 -44t18.5 -35t18.5 -26.5t16.5 -19.5t17 -13.5t15.5 -8.5t16 -5t15 -2.5t16.5 -1.5t16 -1v-31h-527v31q38 0 58.5 18.5t24 44 t-2.5 59.5t-14 57t-18 46l-66 164h-508q-9 -26 -16 -48.5t-16 -65.5t-10 -77.5t8 -74.5t31 -66t65.5 -42.5t105.5 -14.5v-31h-479zM418 1700q0 44 31.5 76t74.5 32q46 0 77.5 -32t31.5 -76t-31.5 -75.5t-77.5 -31.5q-43 0 -74.5 31.5t-31.5 75.5zM774 1700q0 44 31.5 76 t75.5 32t77 -32t33 -76t-32.5 -75.5t-77.5 -31.5q-44 0 -75.5 31.5t-31.5 75.5z" />
<glyph unicode="&#xc5;" horiz-adv-x="1429" d="M35 0v31q25 1 37.5 4t38.5 24t51 63t64.5 124.5t88.5 204.5h529l-273 679l117 312h29q168 -401 296 -714.5t172 -426.5l44 -113q10 -24 20.5 -44t18.5 -35t18.5 -26.5t16.5 -19.5t17 -13.5t15.5 -8.5t16 -5t15 -2.5t16.5 -1.5t16 -1v-31h-527v31q38 0 58.5 18.5t24 44 t-2.5 59.5t-14 57t-18 46l-66 164h-508q-9 -26 -16 -48.5t-16 -65.5t-10 -77.5t8 -74.5t31 -66t65.5 -42.5t105.5 -14.5v-31h-479zM496 1802q0 87 60 149t146 62q87 0 149 -62t62 -149q0 -86 -61.5 -147.5t-149.5 -61.5q-86 0 -146 61t-60 148zM575 1802q0 -52 37.5 -89.5 t89.5 -37.5q54 0 91.5 37t37.5 90q0 54 -37.5 91.5t-91.5 37.5q-53 0 -90 -37.5t-37 -91.5z" />
<glyph unicode="&#xc6;" horiz-adv-x="1986" d="M20 0v31q22 1 43 8.5t58 36.5t79 79t105 143.5t137 221.5h476v684q0 116 -39 161.5t-127 45.5v31h422v-1442h-398v31q36 0 60 8.5t43.5 31.5t29 69.5t9.5 117.5v231h-451q-49 -91 -78 -163.5t-38.5 -120t-2 -81.5t21 -51.5t41.5 -27.5t50 -12t55 -2v-31h-496zM1317 0v33 q61 4 115 13t123.5 36t121 68t93.5 113.5t55 168.5h30v-432h-538zM1317 711v30q37 4 70 14t69.5 31.5t60 63.5t27.5 100h31v-448h-31q-14 184 -227 209zM1317 1409v33h510v-381h-31q-30 321 -479 348z" />
<glyph unicode="&#xc7;" horiz-adv-x="1394" d="M84 721q0 309 173.5 510.5t465.5 224.5v-31q-60 -9 -107 -33.5t-89 -75.5t-69 -128.5t-43 -195t-16 -271.5t16 -272.5t44 -195.5t70 -128.5t88.5 -75.5t105.5 -33v-30q-291 23 -465 225.5t-174 509.5zM643 -371q7 23 28 34t44 5q23 -8 34 -27t5 -42q-2 -17 -19 -25 q-3 -3 1.5 -7t21 -8t43.5 -3q51 0 81 31t29 83q0 16 -5.5 35t-19.5 43t-37.5 40.5t-59 25t-84.5 -1.5l16 49q107 33 173.5 10t95.5 -70.5t22 -103.5q-6 -50 -29.5 -86t-57 -53t-64.5 -24.5t-60 -6.5q-89 0 -142 45q-23 23 -16 57zM866 16q145 21 250.5 132t132.5 280h31 l25 -319q-97 -64 -199 -92t-240 -33v32zM866 1425v33q144 -3 251.5 -30.5t187.5 -92.5l-25 -319h-31q-57 195 -152.5 294.5t-230.5 114.5z" />
<glyph unicode="&#xc8;" horiz-adv-x="1280" d="M61 0v31q61 0 87 59t26 170v932q0 105 -25 162t-88 57v31h367v-1442h-367zM334 1780l196 59l355 -334h-60zM573 0v33q491 27 547 403h31v-436h-578zM573 709v39q245 15 267 206h30v-450h-30q-22 190 -267 205zM573 1409v33h551v-379h-30q-30 324 -521 346z" />
<glyph unicode="&#xc9;" horiz-adv-x="1280" d="M61 0v31q61 0 87 59t26 170v932q0 105 -25 162t-88 57v31h367v-1442h-367zM303 1505l354 334l197 -59l-492 -275h-59zM573 0v33q491 27 547 403h31v-436h-578zM573 709v39q245 15 267 206h30v-450h-30q-22 190 -267 205zM573 1409v33h551v-379h-30q-30 324 -521 346z" />
<glyph unicode="&#xca;" horiz-adv-x="1280" d="M61 0v31q61 0 87 59t26 170v932q0 105 -25 162t-88 57v31h367v-1442h-367zM293 1505l305 383l305 -383h-63l-242 183l-244 -183h-61zM573 0v33q491 27 547 403h31v-436h-578zM573 709v39q245 15 267 206h30v-450h-30q-22 190 -267 205zM573 1409v33h551v-379h-30 q-30 324 -521 346z" />
<glyph unicode="&#xcb;" horiz-adv-x="1280" d="M61 0v31q61 0 87 59t26 170v932q0 105 -25 162t-88 57v31h367v-1442h-367zM315 1700q0 44 32.5 76t76.5 32t76 -32t32 -76t-32 -75.5t-76 -31.5t-76.5 31.5t-32.5 75.5zM573 0v33q491 27 547 403h31v-436h-578zM573 709v39q245 15 267 206h30v-450h-30q-22 190 -267 205z M573 1409v33h551v-379h-30q-30 324 -521 346zM672 1700q0 44 32 76t76 32t76.5 -32t32.5 -76t-32.5 -75.5t-76.5 -31.5t-76 31.5t-32 75.5z" />
<glyph unicode="&#xcc;" horiz-adv-x="739" d="M90 0v31q69 0 114.5 52.5t45.5 152.5v1003q0 90 -43.5 131t-116.5 41v31h572v-31q-72 0 -116 -41t-44 -131v-1003q0 -100 45.5 -152.5t114.5 -52.5v-31h-572zM92 1780l197 59l354 -334h-59z" />
<glyph unicode="&#xcd;" horiz-adv-x="739" d="M90 0v31q69 0 114.5 52.5t45.5 152.5v1003q0 90 -43.5 131t-116.5 41v31h572v-31q-72 0 -116 -41t-44 -131v-1003q0 -100 45.5 -152.5t114.5 -52.5v-31h-572zM94 1505l355 334l196 -59l-491 -275h-60z" />
<glyph unicode="&#xce;" horiz-adv-x="739" d="M76 1505l305 383l305 -383h-63l-242 183l-244 -183h-61zM90 0v31q69 0 114.5 52.5t45.5 152.5v1003q0 90 -43.5 131t-116.5 41v31h572v-31q-72 0 -116 -41t-44 -131v-1003q0 -100 45.5 -152.5t114.5 -52.5v-31h-572z" />
<glyph unicode="&#xcf;" horiz-adv-x="739" d="M90 0v31q69 0 114.5 52.5t45.5 152.5v1003q0 90 -43.5 131t-116.5 41v31h572v-31q-72 0 -116 -41t-44 -131v-1003q0 -100 45.5 -152.5t114.5 -52.5v-31h-572zM90 1700q0 44 32.5 76t76.5 32t76 -32t32 -76t-32 -75.5t-76 -31.5t-76.5 31.5t-32.5 75.5zM446 1700 q0 44 32.5 76t76.5 32t76.5 -32t32.5 -76t-32.5 -75.5t-76.5 -31.5t-76.5 31.5t-32.5 75.5z" />
<glyph unicode="&#xd0;" horiz-adv-x="1499" d="M53 700v39h168v441q0 98 -39.5 164.5t-105.5 66.5v31h401v-703h295v-39h-295v-700h-401v31q66 0 105.5 63.5t39.5 167.5v438h-168zM621 0v31q50 2 92 8.5t93 25t91 48.5t79.5 82.5t65.5 122t42 171.5t16 228q0 124 -16 226t-42 172t-65 123t-79 84t-91 51t-93.5 28 t-92.5 10v29q782 -20 782 -723q0 -122 -23.5 -222.5t-63.5 -172.5t-99 -128t-124.5 -91t-146.5 -58t-158.5 -33t-166.5 -12z" />
<glyph unicode="&#xd1;" horiz-adv-x="1683" d="M20 1411v31h441l885 -1118v-324h-86l-996 1262q-27 34 -51.5 59.5t-45.5 41t-36.5 25.5t-34 14.5t-27.5 6t-26.5 2t-22.5 0.5zM43 0v31q62 0 112 23t81 56t53.5 84t33 91.5t16.5 95t6.5 79t0.5 56.5h31q0 -33 0.5 -56t5.5 -78.5t14.5 -95.5t30 -91.5t48.5 -84.5t73 -56 t102 -23v-31h-608zM362 1556q27 68 63 118.5t71.5 77t72 42.5t68 18t56 1t38.5 -5l14 -4l240 -88q27 -11 70.5 -11.5t89.5 9t87.5 36.5t59.5 67l25 -15q-28 -68 -64 -118.5t-71.5 -77t-72.5 -43t-68 -18.5t-56 -1.5t-39 4.5l-14 4l-240 90q-27 9 -69 10.5t-88.5 -6.5 t-87.5 -34t-60 -66zM1040 1411v31h605v-31q-49 0 -90 -14t-70 -35t-52 -55.5t-37.5 -65t-24.5 -74t-15 -72t-7.5 -70t-2.5 -56.5v-43h-31q0 23 -0.5 37.5t-1.5 49.5t-5 61t-10 64.5t-17 67.5t-25 62.5t-35 57.5t-46.5 44.5t-60 30.5t-74.5 10z" />
<glyph unicode="&#xd2;" horiz-adv-x="1546" d="M84 711q0 145 40 273.5t116 229.5t193.5 165t264.5 77v-33q-106 -16 -174.5 -86t-107.5 -225t-39 -401q0 -186 21 -316.5t64 -209.5t100 -118.5t136 -50.5v-30q-147 12 -264.5 73t-193.5 158t-116 223t-40 271zM455 1780l196 59l355 -334h-60zM842 -14v30q79 11 135 50 t98.5 118t63 209.5t20.5 317.5q0 247 -38.5 402t-106 224.5t-172.5 85.5v33q147 -13 265 -77t193.5 -165t115.5 -229.5t40 -273.5t-40 -271.5t-115.5 -223.5t-193 -158t-265.5 -72z" />
<glyph unicode="&#xd3;" horiz-adv-x="1546" d="M84 711q0 145 40 273.5t116 229.5t193.5 165t264.5 77v-33q-106 -16 -174.5 -86t-107.5 -225t-39 -401q0 -186 21 -316.5t64 -209.5t100 -118.5t136 -50.5v-30q-147 12 -264.5 73t-193.5 158t-116 223t-40 271zM481 1505l354 334l197 -60l-491 -274h-60zM842 -14v30 q79 11 135 50t98.5 118t63 209.5t20.5 317.5q0 247 -38.5 402t-106 224.5t-172.5 85.5v33q147 -13 265 -77t193.5 -165t115.5 -229.5t40 -273.5t-40 -271.5t-115.5 -223.5t-193 -158t-265.5 -72z" />
<glyph unicode="&#xd4;" horiz-adv-x="1546" d="M84 711q0 145 40 273.5t116 229.5t193.5 165t264.5 77v-33q-106 -16 -174.5 -86t-107.5 -225t-39 -401q0 -186 21 -316.5t64 -209.5t100 -118.5t136 -50.5v-30q-147 12 -264.5 73t-193.5 158t-116 223t-40 271zM463 1505l305 383l305 -383h-63l-242 183l-244 -183h-61z M842 -14v30q79 11 135 50t98.5 118t63 209.5t20.5 317.5q0 247 -38.5 402t-106 224.5t-172.5 85.5v33q147 -13 265 -77t193.5 -165t115.5 -229.5t40 -273.5t-40 -271.5t-115.5 -223.5t-193 -158t-265.5 -72z" />
<glyph unicode="&#xd5;" horiz-adv-x="1546" d="M84 711q0 145 40 273.5t116 229.5t193.5 165t264.5 77v-33q-106 -16 -174.5 -86t-107.5 -225t-39 -401q0 -186 21 -316.5t64 -209.5t100 -118.5t136 -50.5v-30q-147 12 -264.5 73t-193.5 158t-116 223t-40 271zM301 1554q28 69 64 119.5t71.5 77t72.5 42.5t68 18.5 t56 1.5t39 -5l14 -4l240 -90q27 -10 70 -10t89.5 9.5t87.5 36.5t60 67l24 -15q-28 -68 -64.5 -118.5t-72 -77t-72.5 -43t-68 -18.5t-55.5 -1.5t-38.5 4.5l-14 4l-239 90q-28 9 -70 10.5t-88.5 -6.5t-88 -33.5t-60.5 -66.5zM842 -14v30q79 11 135 50t98.5 118t63 209.5 t20.5 317.5q0 247 -38.5 402t-106 224.5t-172.5 85.5v33q147 -13 265 -77t193.5 -165t115.5 -229.5t40 -273.5t-40 -271.5t-115.5 -223.5t-193 -158t-265.5 -72z" />
<glyph unicode="&#xd6;" horiz-adv-x="1546" d="M84 711q0 145 40 273.5t116 229.5t193.5 165t264.5 77v-33q-106 -16 -174.5 -86t-107.5 -225t-39 -401q0 -186 21 -316.5t64 -209.5t100 -118.5t136 -50.5v-30q-147 12 -264.5 73t-193.5 158t-116 223t-40 271zM487 1700q0 44 31.5 76t75.5 32t76 -32t32 -76t-32 -76.5 t-76 -32.5t-75.5 32.5t-31.5 76.5zM842 -14v30q79 11 135 50t98.5 118t63 209.5t20.5 317.5q0 247 -38.5 402t-106 224.5t-172.5 85.5v33q147 -13 265 -77t193.5 -165t115.5 -229.5t40 -273.5t-40 -271.5t-115.5 -223.5t-193 -158t-265.5 -72zM842 1700q0 44 32 76t76 32 t76.5 -32t32.5 -76t-32.5 -76.5t-76.5 -32.5t-76 32.5t-32 76.5z" />
<glyph unicode="&#xd7;" horiz-adv-x="1228" d="M121 143l379 377l-379 379l117 117l376 -379l379 379l115 -117l-379 -379l379 -377l-115 -116l-379 379l-376 -379z" />
<glyph unicode="&#xd8;" horiz-adv-x="1548" d="M86 711q0 146 40 274.5t115.5 229t193.5 164.5t265 77v-31q-106 -17 -174.5 -87t-107.5 -225t-39 -402q0 -329 76 -490l618 1026q-73 154 -229 176v35q172 -15 297 -96l100 164h43l-113 -185q139 -100 213 -266t74 -364q0 -145 -40 -271t-116 -223t-193.5 -158 t-264.5 -73v32q79 11 135 49.5t98.5 117t63 209t20.5 317.5q0 318 -71 493l-617 -1024q70 -143 227 -162v-32q-162 11 -292 86l-86 -144h-43l98 162q-142 95 -216.5 257t-74.5 364z" />
<glyph unicode="&#xd9;" horiz-adv-x="1507" d="M35 1411v31h579v-31q-37 0 -65.5 -7t-55 -25t-41 -55.5t-14.5 -92.5v-750q0 -183 99.5 -288t259.5 -105q69 0 132 26t113 74.5t79.5 126t29.5 172.5h31q0 -116 -32 -207t-82 -145.5t-118 -90t-134 -49t-136 -13.5q-103 0 -192 34t-156 98t-105.5 163t-38.5 221v733 q0 180 -153 180zM459 1780l196 59l355 -334h-60zM891 1411v31h573v-31q-46 0 -84 -8.5t-65.5 -21.5t-49 -35t-35.5 -41.5t-23.5 -48.5t-14 -48.5t-7 -49.5t-3 -44t-0.5 -38v-7h-31q0 23 -0.5 37.5t-2.5 44t-6.5 50t-13.5 50t-21.5 50t-32.5 43t-45 36t-60.5 22.5t-77.5 9z " />
<glyph unicode="&#xda;" horiz-adv-x="1507" d="M35 1411v31h579v-31q-37 0 -65.5 -7t-55 -25t-41 -55.5t-14.5 -92.5v-750q0 -183 99.5 -288t259.5 -105q69 0 132 26t113 74.5t79.5 126t29.5 172.5h31q0 -116 -32 -207t-82 -145.5t-118 -90t-134 -49t-136 -13.5q-103 0 -192 34t-156 98t-105.5 163t-38.5 221v733 q0 180 -153 180zM481 1505l355 334l196 -59l-491 -275h-60zM891 1411v31h573v-31q-46 0 -84 -8.5t-65.5 -21.5t-49 -35t-35.5 -41.5t-23.5 -48.5t-14 -48.5t-7 -49.5t-3 -44t-0.5 -38v-7h-31q0 23 -0.5 37.5t-2.5 44t-6.5 50t-13.5 50t-21.5 50t-32.5 43t-45 36t-60.5 22.5 t-77.5 9z" />
<glyph unicode="&#xdb;" horiz-adv-x="1507" d="M35 1411v31h579v-31q-37 0 -65.5 -7t-55 -25t-41 -55.5t-14.5 -92.5v-750q0 -183 99.5 -288t259.5 -105q69 0 132 26t113 74.5t79.5 126t29.5 172.5h31q0 -116 -32 -207t-82 -145.5t-118 -90t-134 -49t-136 -13.5q-103 0 -192 34t-156 98t-105.5 163t-38.5 221v733 q0 180 -153 180zM469 1505l305 383l305 -383h-63l-242 183l-244 -183h-61zM891 1411v31h573v-31q-46 0 -84 -8.5t-65.5 -21.5t-49 -35t-35.5 -41.5t-23.5 -48.5t-14 -48.5t-7 -49.5t-3 -44t-0.5 -38v-7h-31q0 23 -0.5 37.5t-2.5 44t-6.5 50t-13.5 50t-21.5 50t-32.5 43 t-45 36t-60.5 22.5t-77.5 9z" />
<glyph unicode="&#xdc;" horiz-adv-x="1507" d="M35 1411v31h579v-31q-37 0 -65.5 -7t-55 -25t-41 -55.5t-14.5 -92.5v-750q0 -183 99.5 -288t259.5 -105q69 0 132 26t113 74.5t79.5 126t29.5 172.5h31q0 -116 -32 -207t-82 -145.5t-118 -90t-134 -49t-136 -13.5q-103 0 -192 34t-156 98t-105.5 163t-38.5 221v733 q0 180 -153 180zM467 1700q0 44 31 76t75 32t76.5 -32t32.5 -76t-32.5 -76.5t-76.5 -32.5t-75 32t-31 77zM821 1700q0 44 32.5 76t76.5 32t76 -32t32 -76t-32 -76.5t-76 -32.5t-76.5 32.5t-32.5 76.5zM891 1411v31h573v-31q-46 0 -84 -8.5t-65.5 -21.5t-49 -35t-35.5 -41.5 t-23.5 -48.5t-14 -48.5t-7 -49.5t-3 -44t-0.5 -38v-7h-31q0 23 -0.5 37.5t-2.5 44t-6.5 50t-13.5 50t-21.5 50t-32.5 43t-45 36t-60.5 22.5t-77.5 9z" />
<glyph unicode="&#xdd;" horiz-adv-x="1499" d="M20 1413v29h588v-29q-17 0 -26 -0.5t-28.5 -4.5t-29 -12t-18.5 -25.5t-6 -41t17.5 -62t43.5 -87.5l311 -516v-424q0 -108 47 -158.5t119 -50.5v-31h-573v31q71 0 117.5 50.5t46.5 158.5v338q-134 236 -232 404.5t-129 218.5l-32 50q-32 56 -62 91t-60 49t-47.5 17.5 t-46.5 4.5zM526 1505l355 334l196 -59l-491 -275h-60zM901 1411v31h572v-31q-22 0 -36 -1t-45 -9.5t-56 -24t-64 -48.5t-75.5 -79.5t-83 -119.5t-93.5 -166l-21 26q8 16 15.5 34t19 48.5t19.5 59.5t13.5 63.5t5 64.5t-10 58.5t-28 48.5t-52.5 32.5t-80 12.5z" />
<glyph unicode="&#xde;" horiz-adv-x="1286" d="M76 0v31q67 0 110 56t43 157v985q0 92 -41 137t-112 45v31h559v-31q-70 0 -113 -45.5t-43 -136.5v-985q0 -101 44.5 -157t111.5 -56v-31h-559zM625 362v31q43 1 75.5 5.5t67 15t59 27.5t47.5 45.5t37 66.5t22.5 92.5t8.5 122.5q0 80 -10.5 141.5t-32 102t-48 67.5t-65 42 t-75 21.5t-86.5 8.5v29q113 -3 199.5 -14.5t164 -40t127 -74t78.5 -116.5t29 -167t-29 -166.5t-78 -115t-127.5 -72t-164 -38.5t-199.5 -14z" />
<glyph unicode="&#xdf;" horiz-adv-x="1239" d="M59 0v31q53 17 67.5 68t14.5 147v770q0 223 89 356.5t266 153.5v-31q-39 -19 -67.5 -68.5t-41.5 -106.5t-20.5 -111t-8.5 -90v-36v-1083h-299zM488.5 122q-4.5 33 5.5 62q15 40 55.5 57.5t81.5 0.5q39 -15 55.5 -56.5t1.5 -81.5q-15 -41 -55 -55q-14 -6 -1 -17 q11 -9 34 -14v-32q-60 8 -100.5 31t-55.5 49q-17 23 -21.5 56zM559 838v30q36 0 66 6.5t61.5 27t52.5 54.5t35 93t14 139q0 141 -43.5 213.5t-105.5 93.5v33q75 -7 134 -25.5t111 -56.5t80.5 -106t28.5 -162q0 -72 -25 -131t-59.5 -92.5t-75.5 -56t-69.5 -30.5t-44.5 -8 q31 0 69 -6.5t84 -22t90 -38.5t85.5 -59t73 -80t50.5 -105.5t19 -132.5q0 -83 -20.5 -152.5t-64 -127.5t-119 -96t-177.5 -50v28q52 28 82 99.5t37.5 144.5t7.5 172q-1 83 -26.5 152.5t-65.5 115t-91 77t-100 45.5t-94 14z" />
<glyph unicode="&#xe0;" d="M84 190q0 38 7 69.5t22.5 56.5t36.5 45.5t52.5 38t66.5 31.5t83 28.5t97 27.5t113 29l48 12v123q0 145 -63.5 219t-163.5 45l-12 27q34 12 70.5 18t56.5 6l20 -1q72 0 126.5 -20t90 -54.5t57 -87t30.5 -112.5t9 -136v-328q0 -5 0.5 -14.5t5.5 -32.5t14 -41t28.5 -32.5 t46.5 -14.5q5 0 13.5 1t24.5 12t21 30l31 -12q-13 -53 -72.5 -97t-142.5 -44h-11t-26.5 3.5t-38 9.5t-40.5 19.5t-37.5 32t-26.5 49t-11 68.5v332q-305 -71 -305 -258q0 -12 3 -27.5t12.5 -37.5t24.5 -40t43.5 -30.5t64.5 -12.5q45 0 77 19q12 -24 23 -35q-103 -92 -236 -92 q-9 0 -25 1t-56 12t-71 30.5t-56 62.5t-25 102zM164 774q14 23 21.5 35t35 39.5t64.5 50.5l14 -29q-35 -28 -27 -42q1 -2 4 -3q46 -7 68 -41q26 -36 18.5 -78t-43.5 -69q-35 -25 -78 -17.5t-69 42.5q-36 55 -8 112zM250 1382l196 60l355 -334h-60z" />
<glyph unicode="&#xe1;" d="M84 190q0 38 7 69.5t22.5 56.5t36.5 45.5t52.5 38t66.5 31.5t83 28.5t97 27.5t113 29l48 12v123q0 145 -63.5 219t-163.5 45l-12 27q34 12 70.5 18t56.5 6l20 -1q72 0 126.5 -20t90 -54.5t57 -87t30.5 -112.5t9 -136v-328q0 -5 0.5 -14.5t5.5 -32.5t14 -41t28.5 -32.5 t46.5 -14.5q5 0 13.5 1t24.5 12t21 30l31 -12q-13 -53 -72.5 -97t-142.5 -44h-11t-26.5 3.5t-38 9.5t-40.5 19.5t-37.5 32t-26.5 49t-11 68.5v332q-305 -71 -305 -258q0 -12 3 -27.5t12.5 -37.5t24.5 -40t43.5 -30.5t64.5 -12.5q45 0 77 19q12 -24 23 -35q-103 -92 -236 -92 q-9 0 -25 1t-56 12t-71 30.5t-56 62.5t-25 102zM164 774q14 23 21.5 35t35 39.5t64.5 50.5l14 -29q-35 -28 -27 -42q1 -2 4 -3q46 -7 68 -41q26 -36 18.5 -78t-43.5 -69q-35 -25 -78 -17.5t-69 42.5q-36 55 -8 112zM260 1108l354 334l197 -60l-491 -274h-60z" />
<glyph unicode="&#xe2;" d="M84 190q0 38 7 69.5t22.5 56.5t36.5 45.5t52.5 38t66.5 31.5t83 28.5t97 27.5t113 29l48 12v123q0 145 -63.5 219t-163.5 45l-12 27q34 12 70.5 18t56.5 6l20 -1q72 0 126.5 -20t90 -54.5t57 -87t30.5 -112.5t9 -136v-328q0 -5 0.5 -14.5t5.5 -32.5t14 -41t28.5 -32.5 t46.5 -14.5q5 0 13.5 1t24.5 12t21 30l31 -12q-13 -53 -72.5 -97t-142.5 -44h-11t-26.5 3.5t-38 9.5t-40.5 19.5t-37.5 32t-26.5 49t-11 68.5v332q-305 -71 -305 -258q0 -12 3 -27.5t12.5 -37.5t24.5 -40t43.5 -30.5t64.5 -12.5q45 0 77 19q12 -24 23 -35q-103 -92 -236 -92 q-9 0 -25 1t-56 12t-71 30.5t-56 62.5t-25 102zM164 774q14 23 21.5 35t35 39.5t64.5 50.5l14 -29q-35 -28 -27 -42q1 -2 4 -3q46 -7 68 -41q26 -36 18.5 -78t-43.5 -69q-35 -25 -78 -17.5t-69 42.5q-36 55 -8 112zM233 1059l306 383l305 -383h-64l-241 182l-244 -182h-62z " />
<glyph unicode="&#xe3;" d="M57 1137q28 68 64 118.5t71.5 77t72.5 42.5t68 18.5t56 1.5t39 -5l14 -4l240 -90q27 -10 70 -10t89.5 9.5t87.5 36t60 65.5l25 -13q-28 -68 -64.5 -118.5t-72 -77t-72.5 -42.5t-68 -18.5t-55.5 -1.5t-38.5 5l-14 4l-240 88q-28 10 -70.5 11.5t-88.5 -6t-87.5 -33.5 t-60.5 -67zM84 190q0 38 7 69.5t22.5 56.5t36.5 45.5t52.5 38t66.5 31.5t83 28.5t97 27.5t113 29l48 12v123q0 145 -63.5 219t-163.5 45l-12 27q34 12 70.5 18t56.5 6l20 -1q72 0 126.5 -20t90 -54.5t57 -87t30.5 -112.5t9 -136v-328q0 -5 0.5 -14.5t5.5 -32.5t14 -41 t28.5 -32.5t46.5 -14.5q5 0 13.5 1t24.5 12t21 30l31 -12q-13 -53 -72.5 -97t-142.5 -44h-11t-26.5 3.5t-38 9.5t-40.5 19.5t-37.5 32t-26.5 49t-11 68.5v332q-305 -71 -305 -258q0 -12 3 -27.5t12.5 -37.5t24.5 -40t43.5 -30.5t64.5 -12.5q45 0 77 19q12 -24 23 -35 q-103 -92 -236 -92q-9 0 -25 1t-56 12t-71 30.5t-56 62.5t-25 102zM164 774q14 23 21.5 35t35 39.5t64.5 50.5l14 -29q-35 -28 -27 -42q1 -2 4 -3q46 -7 68 -41q26 -36 18.5 -78t-43.5 -69q-35 -25 -78 -17.5t-69 42.5q-36 55 -8 112z" />
<glyph unicode="&#xe4;" d="M84 190q0 38 7 69.5t22.5 56.5t36.5 45.5t52.5 38t66.5 31.5t83 28.5t97 27.5t113 29l48 12v123q0 145 -63.5 219t-163.5 45l-12 27q34 12 70.5 18t56.5 6l20 -1q72 0 126.5 -20t90 -54.5t57 -87t30.5 -112.5t9 -136v-328q0 -5 0.5 -14.5t5.5 -32.5t14 -41t28.5 -32.5 t46.5 -14.5q5 0 13.5 1t24.5 12t21 30l31 -12q-13 -53 -72.5 -97t-142.5 -44h-11t-26.5 3.5t-38 9.5t-40.5 19.5t-37.5 32t-26.5 49t-11 68.5v332q-305 -71 -305 -258q0 -12 3 -27.5t12.5 -37.5t24.5 -40t43.5 -30.5t64.5 -12.5q45 0 77 19q12 -24 23 -35q-103 -92 -236 -92 q-9 0 -25 1t-56 12t-71 30.5t-56 62.5t-25 102zM164 774q14 23 21.5 35t35 39.5t64.5 50.5l14 -29q-35 -28 -27 -42q1 -2 4 -3q46 -7 68 -41q26 -36 18.5 -78t-43.5 -69q-35 -25 -78 -17.5t-69 42.5q-36 55 -8 112zM242 1262q0 44 31 76t75 32q46 0 77.5 -32t31.5 -76 q0 -45 -32 -77t-77 -32q-44 0 -75 32t-31 77zM598 1262q0 44 31.5 76t75.5 32t76 -32t32 -76t-32 -76.5t-76 -32.5t-75.5 32.5t-31.5 76.5z" />
<glyph unicode="&#xe5;" d="M84 190q0 38 7 69.5t22.5 56.5t36.5 45.5t52.5 38t66.5 31.5t83 28.5t97 27.5t113 29l48 12v123q0 145 -63.5 219t-163.5 45l-12 27q34 12 70.5 18t56.5 6l20 -1q72 0 126.5 -20t90 -54.5t57 -87t30.5 -112.5t9 -136v-328q0 -5 0.5 -14.5t5.5 -32.5t14 -41t28.5 -32.5 t46.5 -14.5q5 0 13.5 1t24.5 12t21 30l31 -12q-13 -53 -72.5 -97t-142.5 -44h-11t-26.5 3.5t-38 9.5t-40.5 19.5t-37.5 32t-26.5 49t-11 68.5v332q-305 -71 -305 -258q0 -12 3 -27.5t12.5 -37.5t24.5 -40t43.5 -30.5t64.5 -12.5q45 0 77 19q12 -24 23 -35q-103 -92 -236 -92 q-9 0 -25 1t-56 12t-71 30.5t-56 62.5t-25 102zM164 774q14 23 21.5 35t35 39.5t64.5 50.5l14 -29q-35 -28 -27 -42q1 -2 4 -3q46 -7 68 -41q26 -36 18.5 -78t-43.5 -69q-35 -25 -78 -17.5t-69 42.5q-36 55 -8 112zM311 1307q0 87 61 148t148 61q86 0 146.5 -61.5 t60.5 -147.5t-60.5 -147.5t-146.5 -61.5q-87 0 -148 61t-61 148zM391 1307q0 -53 37.5 -90t91.5 -37q52 0 89.5 37t37.5 90t-37.5 90t-89.5 37q-54 0 -91.5 -37t-37.5 -90z" />
<glyph unicode="&#xe6;" horiz-adv-x="1482" d="M86 193q0 50 13 88t40 67t68 52.5t96 43.5t124.5 40.5t153.5 43.5q6 1 9 2v121q0 144 -55.5 217.5t-151.5 49.5l-16 26q32 10 64.5 15.5t48.5 5.5h16q161 0 233 -144q118 124 238 142v-33q-72 -29 -115 -143t-43 -267h389q0 358 -135 410v33q177 -13 255.5 -127 t78.5 -347h-588q7 -171 66.5 -259t177.5 -107q86 -11 164.5 31.5t113.5 107.5l31 -16q-10 -35 -23.5 -66t-42 -69t-65.5 -65t-97 -45.5t-133 -18.5q-163 0 -281.5 120.5t-127.5 313.5l-2 80q-29 -8 -52 -16t-70 -31t-78.5 -48.5t-57 -68.5t-25.5 -92q0 -13 2 -28t11 -38 t23 -40.5t42 -30.5t64 -13q83 0 131 51l24 -32q-45 -57 -119.5 -92t-165.5 -35q-5 0 -13.5 0.5t-32.5 4.5t-46 11.5t-49 23t-46 37t-32.5 56.5t-13.5 78zM160 774q42 77 123 127l14 -27q-35 -27 -28 -41q2 -3 5 -4q40 -6 66 -43t18.5 -79.5t-43.5 -69.5q-35 -25 -78 -17.5 t-69 44.5q-35 54 -8 110z" />
<glyph unicode="&#xe7;" horiz-adv-x="1005" d="M92 473q0 88 31.5 171t89 151t148 113t200.5 53v-33q-32 -8 -62 -23t-64 -48t-59.5 -77.5t-42 -116t-16.5 -159.5q0 -89 23.5 -159.5t64 -114t89 -68.5t104.5 -33q90 -13 184.5 30t126.5 103l25 -14q-10 -42 -37 -85t-72.5 -85.5t-119.5 -69t-164 -26.5q-122 0 -225.5 66 t-163.5 179t-60 246zM365 -371q7 23 27.5 34t43.5 5q23 -8 34 -27t5 -42q-2 -17 -18 -25q-3 -3 1 -7t20.5 -8t43.5 -3q51 0 81.5 31t29.5 83q0 16 -6 35.5t-20 43t-37.5 40t-59 25t-84.5 -1.5l16 49q107 33 173.5 10t95.5 -70.5t22 -103.5q-6 -50 -29.5 -86t-57 -53 t-64.5 -24.5t-60 -6.5q-88 0 -141 45q-23 23 -16 57zM655 930v31q153 -13 226 -105q21 -22 27.5 -55t-5.5 -64q-19 -44 -62.5 -63.5t-86.5 -1.5q-45 17 -65 61t-1 86q18 46 62 62q11 3 -8 18q-31 23 -87 31z" />
<glyph unicode="&#xe8;" d="M76 467q0 204 113 339.5t296 154.5v-31q-77 -28 -129.5 -144.5t-52.5 -263.5h440q0 166 -46 273t-117 135v31q376 -25 376 -469h-653q9 -171 82 -261t193 -110q90 -14 186 26.5t129 112.5l29 -14q-9 -33 -27 -67t-52 -70t-77.5 -63.5t-107.5 -45.5t-138 -18 q-127 0 -230 68t-158.5 178.5t-55.5 238.5zM254 1382l197 60l354 -334h-60z" />
<glyph unicode="&#xe9;" d="M76 467q0 204 113 339.5t296 154.5v-31q-77 -28 -129.5 -144.5t-52.5 -263.5h440q0 166 -46 273t-117 135v31q376 -25 376 -469h-653q9 -171 82 -261t193 -110q90 -14 186 26.5t129 112.5l29 -14q-9 -33 -27 -67t-52 -70t-77.5 -63.5t-107.5 -45.5t-138 -18 q-127 0 -230 68t-158.5 178.5t-55.5 238.5zM248 1108l354 334l197 -60l-492 -274h-59z" />
<glyph unicode="&#xea;" d="M76 467q0 204 113 339.5t296 154.5v-31q-77 -28 -129.5 -144.5t-52.5 -263.5h440q0 166 -46 273t-117 135v31q376 -25 376 -469h-653q9 -171 82 -261t193 -110q90 -14 186 26.5t129 112.5l29 -14q-9 -33 -27 -67t-52 -70t-77.5 -63.5t-107.5 -45.5t-138 -18 q-127 0 -230 68t-158.5 178.5t-55.5 238.5zM211 1059l305 383l305 -383h-63l-242 182l-244 -182h-61z" />
<glyph unicode="&#xeb;" d="M76 467q0 204 113 339.5t296 154.5v-31q-77 -28 -129.5 -144.5t-52.5 -263.5h440q0 166 -46 273t-117 135v31q376 -25 376 -469h-653q9 -171 82 -261t193 -110q90 -14 186 26.5t129 112.5l29 -14q-9 -33 -27 -67t-52 -70t-77.5 -63.5t-107.5 -45.5t-138 -18 q-127 0 -230 68t-158.5 178.5t-55.5 238.5zM244 1262q0 44 31 76t75 32t76.5 -32t32.5 -76t-32.5 -76.5t-76.5 -32.5t-75 32t-31 77zM598 1262q0 44 32 76t77 32q44 0 76 -32t32 -76t-32 -76.5t-76 -32.5q-45 0 -77 32t-32 77z" />
<glyph unicode="&#xec;" horiz-adv-x="540" d="M-20 1382l196 60l354 -334h-59zM59 864q62 -26 82.5 -53t20.5 -80v-512q0 -37 -1 -58t-5.5 -45.5t-13 -38.5t-24 -26.5t-38.5 -19.5v-31h383v31q-52 14 -68 55t-16 133v746l-320 -70v-31z" />
<glyph unicode="&#xed;" horiz-adv-x="540" d="M-2 1108l354 334l197 -60l-492 -274h-59zM59 864v31l320 70v-746q0 -92 16 -133t68 -55v-31h-383v31q23 7 38.5 19.5t24 26.5t13 38.5t5.5 45.5t1 58v512q0 53 -20.5 80t-82.5 53z" />
<glyph unicode="&#xee;" horiz-adv-x="540" d="M-45 1059l305 383l305 -383h-63l-242 182l-244 -182h-61zM59 864q62 -26 82.5 -53t20.5 -80v-512q0 -37 -1 -58t-5.5 -45.5t-13 -38.5t-24 -26.5t-38.5 -19.5v-31h383v31q-52 14 -68 55t-16 133v746l-320 -70v-31z" />
<glyph unicode="&#xef;" horiz-adv-x="540" d="M-25 1262q0 44 31.5 76t77.5 32q44 0 75 -32t31 -76q0 -45 -31 -77t-75 -32q-45 0 -77 32t-32 77zM59 864v31l320 70v-746q0 -92 16 -133t68 -55v-31h-383v31q23 7 38.5 19.5t24 26.5t13 38.5t5.5 45.5t1 58v512q0 53 -20.5 80t-82.5 53zM332 1262q0 44 31 76t75 32 q46 0 77.5 -32t31.5 -76q0 -45 -32 -77t-77 -32q-44 0 -75 32t-31 77z" />
<glyph unicode="&#xf0;" horiz-adv-x="1144" d="M78 440q1 71 15.5 136t46 123.5t77.5 101t113.5 67.5t150.5 25q41 0 80 -6.5t83.5 -21.5t83.5 -47t65 -77q-3 151 -31.5 282.5t-75.5 217.5l-336 -170l-28 25l346 180q-107 154 -310 154v28q243 0 424 -125l209 109l31 -27l-209 -108q112 -103 181 -270.5t69 -377.5 q0 -291 -111.5 -469t-328.5 -204v32q92 38 131 194t39 466q-38 68 -102 113t-130 45q-101 0 -160.5 -113.5t-62.5 -312.5q-1 -186 33.5 -277t107.5 -115v-32q-86 10 -158 42.5t-128 87t-86.5 138t-28.5 186.5z" />
<glyph unicode="&#xf1;" horiz-adv-x="1062" d="M20 864v29l320 72v-748q0 -91 16.5 -132t67.5 -54v-31h-383v31q23 7 38.5 19t24 26t13 38t5.5 45t1 58v516q0 54 -20 79.5t-83 51.5zM72 1137q28 68 64 118.5t71.5 77t72.5 42.5t68 18.5t56 1.5t39 -5l14 -4l239 -90q27 -10 70.5 -10t89.5 9.5t87.5 36t60.5 65.5l24 -13 q-28 -68 -64.5 -118.5t-72 -77t-72.5 -42.5t-68 -18.5t-55.5 -1.5t-38.5 5l-14 4l-240 88q-28 10 -70.5 11.5t-88.5 -6t-87.5 -33.5t-60.5 -67zM410 842q53 55 122 89t134 34q64 0 111.5 -15.5t84.5 -51t55.5 -99t18.5 -154.5v-426q0 -93 16 -135t68 -55v-29h-383v29 q28 8 45.5 23.5t25 42.5t9.5 52.5t2 71.5v420q0 91 -50.5 146t-138.5 55q-45 0 -96 -35z" />
<glyph unicode="&#xf2;" horiz-adv-x="1122" d="M84 473q0 200 114 336.5t318 151.5v-31q-94 -15 -135 -115.5t-41 -341.5q0 -165 19.5 -262.5t56.5 -142t100 -54.5v-30q-204 15 -318 152t-114 337zM291 1382l196 60l355 -334h-60zM610 14q63 10 100 54.5t56.5 142t19.5 262.5q0 241 -41 341.5t-135 115.5v31 q205 -15 319.5 -151.5t114.5 -336.5t-114.5 -337t-319.5 -152v30z" />
<glyph unicode="&#xf3;" horiz-adv-x="1122" d="M84 473q0 200 114 336.5t318 151.5v-31q-94 -15 -135 -115.5t-41 -341.5q0 -165 19.5 -262.5t56.5 -142t100 -54.5v-30q-204 15 -318 152t-114 337zM279 1108l354 334l196 -60l-491 -274h-59zM610 14q63 10 100 54.5t56.5 142t19.5 262.5q0 241 -41 341.5t-135 115.5v31 q205 -15 319.5 -151.5t114.5 -336.5t-114.5 -337t-319.5 -152v30z" />
<glyph unicode="&#xf4;" horiz-adv-x="1122" d="M84 473q0 200 114 336.5t318 151.5v-31q-94 -15 -135 -115.5t-41 -341.5q0 -165 19.5 -262.5t56.5 -142t100 -54.5v-30q-204 15 -318 152t-114 337zM264 1059l305 383l305 -383h-63l-242 182l-243 -182h-62zM610 14q63 10 100 54.5t56.5 142t19.5 262.5q0 241 -41 341.5 t-135 115.5v31q205 -15 319.5 -151.5t114.5 -336.5t-114.5 -337t-319.5 -152v30z" />
<glyph unicode="&#xf5;" horiz-adv-x="1122" d="M84 473q0 200 114 336.5t318 151.5v-31q-94 -15 -135 -115.5t-41 -341.5q0 -165 19.5 -262.5t56.5 -142t100 -54.5v-30q-204 15 -318 152t-114 337zM88 1137q27 68 63 118.5t71.5 77t72 42.5t68 18.5t56 1.5t38.5 -5l14 -4l240 -90q27 -10 70.5 -10t89.5 9.5t87.5 36 t59.5 65.5l24 -13q-28 -68 -64 -118.5t-71.5 -77t-72.5 -42.5t-68 -18.5t-56 -1.5t-39 5l-14 4l-239 88q-27 10 -69.5 11.5t-88.5 -6t-87 -33.5t-60 -67zM610 14q63 10 100 54.5t56.5 142t19.5 262.5q0 241 -41 341.5t-135 115.5v31q205 -15 319.5 -151.5t114.5 -336.5 t-114.5 -337t-319.5 -152v30z" />
<glyph unicode="&#xf6;" horiz-adv-x="1122" d="M84 473q0 200 114 336.5t318 151.5v-31q-94 -15 -135 -115.5t-41 -341.5q0 -165 19.5 -262.5t56.5 -142t100 -54.5v-30q-204 15 -318 152t-114 337zM281 1262q0 44 31 76t75 32t76.5 -32t32.5 -76t-32.5 -76.5t-76.5 -32.5t-75 32t-31 77zM610 14q63 10 100 54.5 t56.5 142t19.5 262.5q0 241 -41 341.5t-135 115.5v31q205 -15 319.5 -151.5t114.5 -336.5t-114.5 -337t-319.5 -152v30zM635 1262q0 45 31.5 76.5t76.5 31.5q44 0 76.5 -32t32.5 -76t-32.5 -76.5t-76.5 -32.5q-45 0 -76.5 32t-31.5 77z" />
<glyph unicode="&#xf7;" horiz-adv-x="1280" d="M92 485v162h1098v-162h-1098zM514 123q0 52 37 88.5t88 36.5q54 0 90.5 -36t36.5 -89t-36.5 -89t-90.5 -36q-51 0 -88 36.5t-37 88.5zM514 1010q0 52 37 89.5t88 37.5q54 0 90.5 -37t36.5 -90q0 -52 -37 -88.5t-90 -36.5q-51 0 -88 37t-37 88z" />
<glyph unicode="&#xf8;" horiz-adv-x="1122" d="M84 471q0 200 114 337.5t318 152.5v-33q-94 -14 -135 -115t-41 -342q0 -195 35 -287l362 611q-18 63 -48.5 94t-78.5 39v33q114 -9 197 -56l100 168h35l-111 -182q103 -64 158 -174.5t55 -245.5q0 -198 -114.5 -335t-319.5 -154v32q94 15 135 115.5t41 341.5 q0 176 -38 285l-363 -611q20 -63 51 -93t80 -38v-32q-113 9 -197 53l-106 -174h-33l115 190q-103 63 -157 173.5t-54 246.5z" />
<glyph unicode="&#xf9;" horiz-adv-x="1112" d="M33 897v31l329 37v-666q0 -190 191 -190q74 0 117 36l22 -34q-52 -57 -126.5 -93t-143.5 -36q-63 0 -109.5 14t-85.5 47.5t-59.5 96t-20.5 153.5v450v9v33t-1 26.5t-2 22.5t-4 17t-7 14t-10.5 9.5t-14.5 8.5t-19.5 5.5t-24.5 5t-31 3.5zM291 1382l196 60l355 -334h-60z M651 897v31l316 37v-785q0 -71 18.5 -91t85.5 -28v-30l-268 -47q-24 -4 -37.5 4.5t-15.5 19.5l-2 10v723v17q0 84 -10 104q-14 26 -70 33q-8 1 -17 2z" />
<glyph unicode="&#xfa;" horiz-adv-x="1112" d="M33 897v31l329 37v-666q0 -190 191 -190q74 0 117 36l22 -34q-52 -57 -126.5 -93t-143.5 -36q-63 0 -109.5 14t-85.5 47.5t-59.5 96t-20.5 153.5v450v9v33t-1 26.5t-2 22.5t-4 17t-7 14t-10.5 9.5t-14.5 8.5t-19.5 5.5t-24.5 5t-31 3.5zM305 1108l354 334l197 -60 l-491 -274h-60zM651 897v31l316 37v-785q0 -71 18.5 -91t85.5 -28v-30l-268 -47q-24 -4 -37.5 4.5t-15.5 19.5l-2 10v723v17q0 84 -10 104q-14 26 -70 33q-8 1 -17 2z" />
<glyph unicode="&#xfb;" horiz-adv-x="1112" d="M33 897v31l329 37v-666q0 -190 191 -190q74 0 117 36l22 -34q-52 -57 -126.5 -93t-143.5 -36q-63 0 -109.5 14t-85.5 47.5t-59.5 96t-20.5 153.5v450v9v33t-1 26.5t-2 22.5t-4 17t-7 14t-10.5 9.5t-14.5 8.5t-19.5 5.5t-24.5 5t-31 3.5zM250 1059l305 383l305 -383h-63 l-242 182l-244 -182h-61zM651 897v31l316 37v-785q0 -71 18.5 -91t85.5 -28v-30l-268 -47q-24 -4 -37.5 4.5t-15.5 19.5l-2 10v723v17q0 84 -10 104q-14 26 -70 33q-8 1 -17 2z" />
<glyph unicode="&#xfc;" horiz-adv-x="1112" d="M33 897v31l329 37v-666q0 -190 191 -190q74 0 117 36l22 -34q-52 -57 -126.5 -93t-143.5 -36q-63 0 -109.5 14t-85.5 47.5t-59.5 96t-20.5 153.5v450v9v33t-1 26.5t-2 22.5t-4 17t-7 14t-10.5 9.5t-14.5 8.5t-19.5 5.5t-24.5 5t-31 3.5zM258 1262q0 44 32 76t77 32 q44 0 76 -32t32 -76t-32 -76.5t-76 -32.5q-45 0 -77 32t-32 77zM614 1262q0 44 32 76t77 32q44 0 75 -32t31 -76q0 -45 -31 -77t-75 -32q-45 0 -77 32t-32 77zM651 897v31l316 37v-785q0 -71 18.5 -91t85.5 -28v-30l-268 -47q-24 -4 -37.5 4.5t-15.5 19.5l-2 10v723v17 q0 84 -10 104q-14 26 -70 33q-8 1 -17 2z" />
<glyph unicode="&#xfd;" horiz-adv-x="1097" d="M20 918v28h453v-28q-33 0 -51.5 -14t-20.5 -34.5t1 -41t8 -34.5l6 -14l254 -542l-97 -256h-30l-387 843q-37 87 -136 93zM141.5 -404.5q-18.5 48.5 1.5 95.5q22 47 70.5 66t95.5 -3q48 -20 62 -76q6 -20 30 -7q32 19 54 81l30 -2q-49 -134 -139 -209q-25 -21 -65.5 -26 t-73.5 10q-47 22 -65.5 70.5zM272 1108l355 334l196 -60l-491 -274h-60zM668 918v28h399v-28q-28 0 -49.5 -7.5t-55.5 -36t-74.5 -99t-84.5 -181.5l-23 22q10 27 18 56.5t11.5 76.5t-5.5 82.5t-43 61.5t-93 25z" />
<glyph unicode="&#xfe;" horiz-adv-x="1185" d="M35 1397v30l317 70v-694q44 80 132.5 121t174.5 41q192 0 313.5 -137.5t121.5 -362.5q0 -221 -122.5 -345t-324.5 -136v32q193 41 193 426q0 239 -66.5 347t-198.5 108q-96 0 -155 -64t-68 -167v-379q10 -122 65 -189t136 -82v-30q-118 9 -201 67v-387q0 -91 16 -128 t68 -50v-31h-381v31q54 16 68 53t14 125v1618q0 53 -19.5 74t-82.5 39z" />
<glyph unicode="&#xff;" horiz-adv-x="1097" d="M20 918v28h453v-28q-33 0 -51.5 -14t-20.5 -34.5t1 -41t8 -34.5l6 -14l254 -542l-97 -256h-30l-387 843q-37 87 -136 93zM141.5 -404.5q-18.5 48.5 1.5 95.5q22 47 70.5 66t95.5 -3q48 -20 62 -76q6 -20 30 -7q32 19 54 81l30 -2q-49 -134 -139 -209q-25 -21 -65.5 -26 t-73.5 10q-47 22 -65.5 70.5zM262 1262q0 44 31.5 76t75.5 32q45 0 76.5 -31.5t31.5 -76.5t-31.5 -77t-76.5 -32q-44 0 -75.5 32.5t-31.5 76.5zM618 1262q0 44 31.5 76t75.5 32t76.5 -32t32.5 -76t-32.5 -76.5t-76.5 -32.5t-75.5 32.5t-31.5 76.5zM668 918v28h399v-28 q-28 0 -49.5 -7.5t-55.5 -36t-74.5 -99t-84.5 -181.5l-23 22q10 27 18 56.5t11.5 76.5t-5.5 82.5t-43 61.5t-93 25z" />
<glyph unicode="&#x152;" horiz-adv-x="1978" d="M88 709q0 148 34.5 275t102.5 229t180 165.5t257 75.5v-31q-101 -17 -161.5 -88.5t-91 -223t-30.5 -402.5t30.5 -399t90.5 -214t162 -80v-32q-146 12 -257.5 72.5t-180 158.5t-102.5 222.5t-34 271.5zM807 -14v30q64 10 100.5 60t36.5 166v948q0 121 -36.5 172t-100.5 61 v31q40 -8 67 -12h324v-1442h-317q-34 -7 -74 -14zM1339 0v33q428 26 478 403h30v-436h-508zM1339 711v32q185 24 197 209h31v-450h-31q-3 45 -17.5 81t-34 58t-46.5 37.5t-50 22.5t-49 10zM1339 1409v33h482v-379h-31q-46 326 -451 346z" />
<glyph unicode="&#x153;" horiz-adv-x="1605" d="M82 469q0 133 39.5 237.5t129.5 175t222 81.5v-33q-77 -19 -106 -118t-29 -343q0 -242 29 -339t106 -114v-32q-100 8 -176.5 49.5t-122.5 107.5t-69 148.5t-23 179.5zM567 -16v32q77 15 106 112t29 341q0 243 -30 343.5t-105 117.5v33q177 -16 277 -162q117 143 250 162 v-33q-70 -28 -109 -144t-39 -272h377q0 176 -35.5 282.5t-97.5 133.5v33q168 -13 250 -132t82 -348h-576q4 -170 63 -255t175 -103q83 -13 162.5 31t115.5 106l33 -16q-78 -264 -350 -264q-174 0 -303 155q-54 -70 -119 -108t-156 -45z" />
<glyph unicode="&#x178;" horiz-adv-x="1499" d="M20 1413v29h588v-29q-17 0 -26 -0.5t-28.5 -4.5t-29 -12t-18.5 -25.5t-6 -41t17.5 -62t43.5 -87.5l311 -516v-424q0 -108 47 -158.5t119 -50.5v-31h-573v31q71 0 117.5 50.5t46.5 158.5v338q-134 236 -232 404.5t-129 218.5l-32 50q-32 56 -62 91t-60 49t-47.5 17.5 t-46.5 4.5zM465 1700q0 44 32 76t76 32t75.5 -32t31.5 -76t-31.5 -75.5t-75.5 -31.5t-76 31.5t-32 75.5zM821 1700q0 44 32 76t75 32q46 0 78 -32t32 -76t-32 -75.5t-78 -31.5q-43 0 -75 31.5t-32 75.5zM901 1411v31h572v-31q-22 0 -36 -1t-45 -9.5t-56 -24t-64 -48.5 t-75.5 -79.5t-83 -119.5t-93.5 -166l-21 26q8 16 15.5 34t19 48.5t19.5 59.5t13.5 63.5t5 64.5t-10 58.5t-28 48.5t-52.5 32.5t-80 12.5z" />
<glyph unicode="&#x2c6;" horiz-adv-x="610" d="M0 1087l305 386l305 -386h-61l-244 185l-244 -185h-61z" />
<glyph unicode="&#x2dc;" horiz-adv-x="882" d="M-39 1143q28 68 64 118.5t71.5 77t72.5 42.5t68 18t56 1t39 -5l14 -4l240 -88q27 -11 70 -11.5t89.5 8.5t87.5 36t60 67l25 -14q-28 -68 -64.5 -118.5t-72 -77t-72.5 -42.5t-68.5 -18t-56 -1t-38.5 5l-14 4l-239 88q-28 10 -70.5 11.5t-88.5 -6.5t-87.5 -34t-60.5 -67z " />
<glyph unicode="&#x2000;" horiz-adv-x="1006" />
<glyph unicode="&#x2001;" horiz-adv-x="2013" />
<glyph unicode="&#x2002;" horiz-adv-x="1006" />
<glyph unicode="&#x2003;" horiz-adv-x="2013" />
<glyph unicode="&#x2004;" horiz-adv-x="671" />
<glyph unicode="&#x2005;" horiz-adv-x="503" />
<glyph unicode="&#x2006;" horiz-adv-x="335" />
<glyph unicode="&#x2007;" horiz-adv-x="335" />
<glyph unicode="&#x2008;" horiz-adv-x="251" />
<glyph unicode="&#x2009;" horiz-adv-x="402" />
<glyph unicode="&#x200a;" horiz-adv-x="111" />
<glyph unicode="&#x2010;" horiz-adv-x="909" d="M131 440v164h645v-164h-645z" />
<glyph unicode="&#x2011;" horiz-adv-x="909" d="M131 440v164h645v-164h-645z" />
<glyph unicode="&#x2012;" horiz-adv-x="909" d="M131 440v164h645v-164h-645z" />
<glyph unicode="&#x2013;" horiz-adv-x="1148" d="M0 455v123h1149v-123h-1149z" />
<glyph unicode="&#x2014;" horiz-adv-x="2160" d="M0 455v123h2161v-123h-2161z" />
<glyph unicode="&#x2018;" horiz-adv-x="518" d="M126 1105.5q-3 66.5 18 126t55 111.5q18 29 33 49t49 50t77 53l19 -22q-58 -43 -90.5 -100t-29 -88t16.5 -40q63 -7 99 -43q41 -41 42 -100.5t-40 -102.5q-43 -43 -103.5 -43t-101.5 43q-41 40 -44 106.5z" />
<glyph unicode="&#x2019;" horiz-adv-x="522" d="M120 1319q-1 59 40 102q43 43 103.5 43t101.5 -43q41 -40 44 -106.5t-18 -126t-55 -111.5q-62 -99 -160 -151l-18 22q58 43 90 100t28.5 88t-16.5 40q-62 7 -98 43q-41 41 -42 100z" />
<glyph unicode="&#x201a;" horiz-adv-x="524" d="M118 131q-1 59 40 102q43 43 103 43t101 -43q41 -40 44.5 -106.5t-17.5 -126t-55 -111.5q-62 -99 -160 -151l-18 22q58 43 90 100t28.5 88t-16.5 40q-62 7 -98 43q-41 41 -42 100z" />
<glyph unicode="&#x201c;" horiz-adv-x="993" d="M113 1081.5q-3 66.5 17.5 126t53.5 111.5q61 97 160 151l18 -22q-58 -43 -90 -99.5t-28.5 -87.5t16.5 -40q62 -7 98 -43q43 -41 44 -100.5t-42 -102.5q-41 -43 -102 -43t-102 43q-40 40 -43 106.5zM572 1081.5q-3 66.5 18 126t55 111.5q62 99 160 151l18 -22 q-58 -43 -90 -99.5t-28.5 -87.5t16.5 -40q62 -7 98 -43q41 -41 42 -100.5t-40 -102.5q-43 -43 -103.5 -43t-101.5 43q-41 40 -44 106.5z" />
<glyph unicode="&#x201d;" horiz-adv-x="980" d="M120 1327.5q-1 59.5 40 102.5q43 43 103.5 43t101.5 -43q41 -40 44 -106.5t-18 -126.5t-55 -112q-62 -99 -160 -151l-18 22q58 43 90 100t28.5 88t-16.5 40q-62 7 -98 43q-41 41 -42 100.5zM579 1327.5q-1 59.5 42 102.5q41 43 102 43t102 -43q40 -40 43 -106.5 t-17.5 -126.5t-53.5 -112q-61 -97 -160 -151l-19 22q58 43 90.5 100t29 88t-16.5 40q-62 7 -98 43q-43 41 -44 100.5z" />
<glyph unicode="&#x201e;" horiz-adv-x="972" d="M116 131q-1 59 40 102q43 43 103 43t101 -43q41 -40 44.5 -106.5t-17.5 -126t-55 -111.5q-62 -99 -160 -151l-18 22q58 43 90 100t28.5 88t-16.5 40q-62 7 -98 43q-41 41 -42 100zM574 131q-1 59 42 102q41 43 102.5 43t102.5 -43q40 -40 43 -106.5t-17.5 -126 t-53.5 -111.5q-61 -97 -160 -151l-19 22q58 43 90.5 100t29 88t-16.5 40q-63 7 -99 43q-43 41 -44 100z" />
<glyph unicode="&#x2022;" horiz-adv-x="968" d="M248 698q0 95 65.5 160.5t159.5 65.5t160.5 -65.5t66.5 -160.5q0 -92 -66.5 -157.5t-160.5 -65.5t-159.5 65.5t-65.5 157.5z" />
<glyph unicode="&#x2026;" horiz-adv-x="1622" d="M176 129q0 63 43 106.5t105 43.5t104.5 -43.5t42.5 -106.5q0 -60 -43 -102.5t-104 -42.5t-104.5 42.5t-43.5 102.5zM657 129q0 63 43 106.5t105 43.5t104.5 -43.5t42.5 -106.5q0 -60 -43 -102.5t-104 -42.5t-104.5 42.5t-43.5 102.5zM1141 129q0 63 42.5 106.5 t104.5 43.5t105 -43.5t43 -106.5q0 -60 -43.5 -102.5t-104.5 -42.5t-104 42.5t-43 102.5z" />
<glyph unicode="&#x202f;" horiz-adv-x="402" />
<glyph unicode="&#x2039;" horiz-adv-x="694" d="M102 545l473 489v-67l-278 -422l278 -412v-65z" />
<glyph unicode="&#x203a;" horiz-adv-x="694" d="M98 68v65l277 412l-277 422v67l473 -489z" />
<glyph unicode="&#x205f;" horiz-adv-x="503" />
<glyph unicode="&#x20ac;" horiz-adv-x="1247" d="M39 588l22 33h187q-4 66 -4 100q0 28 4 102h-209l22 33h191q60 555 475 600v-33q-110 -25 -163.5 -154t-65.5 -413h456l-22 -33h-436v-102v-100h424l-21 -33h-401q7 -193 34 -312.5t74 -179.5t121 -78v-32q-419 45 -475 602h-213zM870 -16v34q103 21 165.5 107t62.5 221 h30v-272q-61 -44 -118.5 -64t-139.5 -26zM870 1423v35q87 -4 142.5 -24.5t115.5 -67.5v-270h-30q0 135 -62 220.5t-166 106.5z" />
<glyph unicode="&#x2122;" horiz-adv-x="1431" d="M27 1274v168h530v-168h-29q0 40 -16 69t-35.5 42t-45.5 20.5t-37 8.5t-19 1h-31v-452q0 -40 18 -60t46 -20v-29h-232v29q28 0 46 20t18 60v452h-31q-10 0 -21.5 -1t-37.5 -8.5t-45 -21t-34.5 -42t-15.5 -68.5h-28zM616 854v29q113 0 113 194v303q-23 33 -88 33v29h188 l205 -445l170 445h166v-29q-63 0 -63 -74v-370q0 -44 20 -65t51 -21v-29h-233v29q59 0 59 86v389l-198 -510h-27l-221 493v-264q0 -194 100 -194v-29h-242z" />
<glyph unicode="&#x25fc;" horiz-adv-x="942" d="M0 0v942h942v-942h-942z" />
<glyph unicode="&#xfb01;" horiz-adv-x="1140" d="M37 946h133v35q0 143 29 245t88.5 166t143 95.5t198.5 36.5v-31q-242 -37 -242 -471v-76h275h317v-739q0 -93 16 -135.5t68 -55.5v-16h-381v16q28 8 45 23.5t24.5 43.5t9 52t1.5 72v557q0 63 -24.5 107t-78.5 44h-272v-712q0 -89 19.5 -132t72.5 -55v-16h-389v16 q28 7 45 21.5t24.5 42t9 51.5t1.5 72v712h-131zM715.5 1267q-12.5 51 15.5 95q26 45 78 55q23 2 13 22q-16 30 -73 46q-12 4 -26 6v31q88 -9 151.5 -50t77.5 -96q16 -34 16 -73.5t-18 -71.5q-28 -46 -80 -58.5t-96 15.5q-46 28 -58.5 79z" />
<glyph unicode="&#xfb02;" horiz-adv-x="1110" d="M16 946h136v123q0 225 97.5 341t254.5 116q120 0 217 -60l276 62v-1321q0 -90 15.5 -126.5t68.5 -49.5v-31h-381v31q54 16 67 51.5t13 124.5v1102q0 110 -106 137q-24 7 -45 10t-53.5 0.5t-59 -15.5t-55 -44.5t-48 -79.5t-32 -127t-12.5 -182v-62h219l-6 -31h-213v-712 q0 -87 19 -123.5t73 -48.5v-31h-391v31q29 7 45.5 19.5t24.5 36t10 47.5t2 69v712h-132z" />
</font>
</defs>
</svg>
